solid Microscope-Sketchup
facet normal 2.20839305458944e-13 -1.0 1.43159122879028e-13
outer loop
vertex -702.96099873505 -240.904869946907 -3.00000000003399
vertex -700.760998735049 -240.904869946907 -9.25000000003362
vertex -700.76099873505 -240.904869946906 -3.00000000003363
endloop
endfacet
facet normal 2.20839305458944e-13 -1.0 1.43159122879028e-13
outer loop
vertex -700.760998735049 -240.904869946907 -9.25000000003362
vertex -702.96099873505 -240.904869946907 -3.00000000003399
vertex -702.960998735049 -240.904869946908 -9.25000000003398
endloop
endfacet
facet normal -1.60792034676801e-08 2.49052594421776e-11 1.0
outer loop
vertex -688.010998735007 -438.804869946903 -3.00000000000322
vertex -690.460998735007 -437.804869946904 -3.00000000000376
vertex -695.465268735006 -438.804869946905 -3.00000000000443
endloop
endfacet
facet normal -1.60792034676801e-08 2.49052594421776e-11 1.0
outer loop
vertex -690.460998735007 -437.804869946904 -3.00000000000376
vertex -688.010998735007 -438.804869946903 -3.00000000000322
vertex -688.010998735051 -237.904869946903 -3.00000000003197
endloop
endfacet
facet normal -1.60792034676801e-08 2.49052594421776e-11 1.0
outer loop
vertex -690.460998735007 -437.804869946904 -3.00000000000376
vertex -688.010998735051 -237.904869946903 -3.00000000003197
vertex -690.460998735007 -436.304869946904 -3.000000000004
endloop
endfacet
facet normal -1.60792034676801e-08 2.49052594421776e-11 1.0
outer loop
vertex -690.460998735007 -436.304869946904 -3.000000000004
vertex -688.010998735051 -237.904869946903 -3.00000000003197
vertex -690.460998735008 -434.304869946904 -3.00000000000429
endloop
endfacet
facet normal -1.60792034676801e-08 2.49052594421776e-11 1.0
outer loop
vertex -690.460998735007 -436.304869946904 -3.000000000004
vertex -690.460998735008 -434.304869946904 -3.00000000000429
vertex -692.660998735007 -436.304869946904 -3.00000000000435
endloop
endfacet
facet normal -1.60792034676801e-08 2.49052594421776e-11 1.0
outer loop
vertex -690.460998735008 -434.304869946904 -3.00000000000429
vertex -688.010998735051 -237.904869946903 -3.00000000003197
vertex -690.460998735008 -432.804869946904 -3.00000000000448
endloop
endfacet
facet normal -1.60792034676801e-08 2.49052594421776e-11 1.0
outer loop
vertex -690.460998735008 -432.804869946904 -3.00000000000448
vertex -688.010998735051 -237.904869946903 -3.00000000003197
vertex -690.460998735008 -430.804869946904 -3.00000000000476
endloop
endfacet
facet normal -1.60792034676801e-08 2.49052594421776e-11 1.0
outer loop
vertex -690.460998735008 -432.804869946904 -3.00000000000448
vertex -690.460998735008 -430.804869946904 -3.00000000000476
vertex -692.660998735008 -432.804869946904 -3.00000000000483
endloop
endfacet
facet normal -1.60792034676801e-08 2.49052594421776e-11 1.0
outer loop
vertex -690.460998735008 -430.804869946904 -3.00000000000476
vertex -688.010998735051 -237.904869946903 -3.00000000003197
vertex -690.460998735026 -350.804869946904 -3.00000000001624
endloop
endfacet
facet normal -1.60792034676801e-08 2.49052594421776e-11 1.0
outer loop
vertex -690.460998735026 -350.804869946904 -3.00000000001624
vertex -688.010998735051 -237.904869946903 -3.00000000003197
vertex -690.460998735027 -345.804869946904 -3.00000000001694
endloop
endfacet
facet normal -1.60792034676801e-08 2.49052594421776e-11 1.0
outer loop
vertex -690.460998735026 -350.804869946904 -3.00000000001624
vertex -690.460998735027 -345.804869946904 -3.00000000001694
vertex -692.710998735026 -350.804869946904 -3.0000006029266
endloop
endfacet
facet normal -1.60792034676801e-08 2.49052594421776e-11 1.0
outer loop
vertex -690.460998735027 -345.804869946904 -3.00000000001694
vertex -688.010998735051 -237.904869946903 -3.00000000003197
vertex -690.460998735047 -255.904869946904 -3.00000000002981
endloop
endfacet
facet normal -1.60792034676801e-08 2.49052594421776e-11 1.0
outer loop
vertex -690.460998735047 -255.904869946904 -3.00000000002981
vertex -688.010998735051 -237.904869946903 -3.00000000003197
vertex -690.460998735047 -253.904869946904 -3.00000000003009
endloop
endfacet
facet normal -1.60792034676801e-08 2.49052594421776e-11 1.0
outer loop
vertex -690.460998735047 -255.904869946904 -3.00000000002981
vertex -690.460998735047 -253.904869946904 -3.00000000003009
vertex -692.660998735047 -255.904869946904 -3.00000000003017
endloop
endfacet
facet normal -1.60792034676801e-08 2.49052594421776e-11 1.0
outer loop
vertex -690.460998735047 -253.904869946904 -3.00000000003009
vertex -688.010998735051 -237.904869946903 -3.00000000003197
vertex -690.460998735048 -252.404869946904 -3.00000000003032
endloop
endfacet
facet normal -1.60792034676801e-08 2.49052594421776e-11 1.0
outer loop
vertex -690.460998735048 -252.404869946904 -3.00000000003032
vertex -688.010998735051 -237.904869946903 -3.00000000003197
vertex -692.660998735048 -252.404869946904 -3.00000000003067
endloop
endfacet
facet normal -1.60792034676801e-08 2.49052594421776e-11 1.0
outer loop
vertex -692.660998735048 -252.404869946904 -3.00000000003067
vertex -688.010998735051 -237.904869946903 -3.00000000003197
vertex -690.46099873505 -242.404869946904 -3.00000000003176
endloop
endfacet
facet normal -1.60792034676801e-08 2.49052594421776e-11 1.0
outer loop
vertex -690.46099873505 -242.404869946904 -3.00000000003176
vertex -688.010998735051 -237.904869946903 -3.00000000003197
vertex -690.46099873505 -240.904869946904 -3.00000000003196
endloop
endfacet
facet normal -1.60792034676801e-08 2.49052594421776e-11 1.0
outer loop
vertex -690.46099873505 -240.904869946904 -3.00000000003196
vertex -692.660998735051 -237.904869946904 -3.00000000003275
vertex -692.66099873505 -240.904869946904 -3.00000000003232
endloop
endfacet
facet normal -1.60792034676801e-08 2.49052594421776e-11 1.0
outer loop
vertex -692.660998735051 -237.904869946904 -3.00000000003275
vertex -690.46099873505 -240.904869946904 -3.00000000003196
vertex -688.010998735051 -237.904869946903 -3.00000000003197
endloop
endfacet
facet normal -1.60792034676801e-08 2.49052594421776e-11 1.0
outer loop
vertex -692.66099873505 -242.404869946904 -3.00000000003211
vertex -692.660998735048 -252.404869946904 -3.00000000003067
vertex -690.46099873505 -242.404869946904 -3.00000000003176
endloop
endfacet
facet normal -1.60792034676801e-08 2.49052594421776e-11 1.0
outer loop
vertex -692.660998735047 -253.904869946904 -3.00000000003044
vertex -692.660998735047 -255.904869946904 -3.00000000003017
vertex -690.460998735047 -253.904869946904 -3.00000000003009
endloop
endfacet
facet normal -1.60792034676801e-08 2.49052594421776e-11 1.0
outer loop
vertex -692.710998735027 -345.804869946904 -3.0000006029273
vertex -692.710998735026 -350.804869946904 -3.0000006029266
vertex -690.460998735027 -345.804869946904 -3.00000000001694
endloop
endfacet
facet normal -1.60792034676801e-08 2.49052594421776e-11 1.0
outer loop
vertex -692.660998735008 -430.804869946904 -3.00000000000512
vertex -692.660998735008 -432.804869946904 -3.00000000000483
vertex -690.460998735008 -430.804869946904 -3.00000000000476
endloop
endfacet
facet normal -1.60792034676801e-08 2.49052594421776e-11 1.0
outer loop
vertex -692.660998735008 -434.304869946904 -3.00000000000464
vertex -692.660998735007 -436.304869946904 -3.00000000000435
vertex -690.460998735008 -434.304869946904 -3.00000000000429
endloop
endfacet
facet normal -1.60792034676801e-08 2.49052594421776e-11 1.0
outer loop
vertex -695.465268735007 -437.804869946905 -3.00000000000457
vertex -695.465268735006 -438.804869946905 -3.00000000000443
vertex -690.460998735007 -437.804869946904 -3.00000000000376
endloop
endfacet
facet normal -7.62836914582633e-08 -2.58132955379094e-09 -0.999999999999997
outer loop
vertex -705.41099873505 -237.904869946908 -10.6999988109243
vertex -688.010998735005 -438.804869946904 -10.7000003665722
vertex -705.410998735005 -438.804869946908 -10.6999988108955
endloop
endfacet
facet normal -7.62836914582633e-08 -2.58132955379094e-09 -0.999999999999997
outer loop
vertex -688.010998735005 -438.804869946904 -10.7000003665722
vertex -705.41099873505 -237.904869946908 -10.6999988109243
vertex -688.01099873505 -237.904869946904 -10.700000366601
endloop
endfacet
facet normal 0.258819045102361 1.95438512217703e-13 0.965925826289111
outer loop
vertex -697.033417384062 -437.804869946905 -4.20328277958791
vertex -697.333863735006 -438.804869946906 -4.07883382626112
vertex -697.033417384062 -438.804869946906 -4.20328277958776
endloop
endfacet
facet normal 0.499999999999845 2.34399089926187e-13 0.866025403784528
outer loop
vertex -697.333863735006 -438.804869946906 -4.07883382626112
vertex -697.033417384062 -437.804869946905 -4.20328277958791
vertex -697.333863735007 -437.804869946906 -4.07883382626126
endloop
endfacet
facet normal -1.0 -2.20839305458967e-13 -1.62152943567184e-13
outer loop
vertex -690.460998735007 -430.804869946905 -9.25000000000476
vertex -690.460998735026 -350.804869946904 -3.00000000001624
vertex -690.460998735025 -350.804869946905 -9.25000000001623
endloop
endfacet
facet normal -1.0 -2.20839305458967e-13 -1.62152943567184e-13
outer loop
vertex -690.460998735026 -350.804869946904 -3.00000000001624
vertex -690.460998735007 -430.804869946905 -9.25000000000476
vertex -690.460998735008 -430.804869946904 -3.00000000000476
endloop
endfacet
facet normal -1.62131123759852e-13 1.43183668777735e-13 1.0
outer loop
vertex -692.66099873505 -237.904869946905 -9.25000000003276
vertex -700.760998735049 -240.904869946907 -9.25000000003362
vertex -692.660998735049 -240.904869946905 -9.2500000000323
endloop
endfacet
facet normal -1.62131123759852e-13 1.43183668777735e-13 1.0
outer loop
vertex -700.760998735049 -240.904869946907 -9.25000000003362
vertex -692.66099873505 -237.904869946905 -9.25000000003276
vertex -700.76099873505 -237.904869946907 -9.25000000003408
endloop
endfacet
facet normal -1.62131123759852e-13 1.43183668777735e-13 1.0
outer loop
vertex -690.460998735049 -240.904869946905 -9.25000000003195
vertex -692.660998735049 -242.404869946905 -9.25000000003211
vertex -690.460998735049 -242.404869946905 -9.25000000003176
endloop
endfacet
facet normal -1.62131123759852e-13 1.43183668777735e-13 1.0
outer loop
vertex -692.660998735049 -242.404869946905 -9.25000000003211
vertex -690.460998735049 -240.904869946905 -9.25000000003195
vertex -700.760998735049 -242.404869946907 -9.25000000003344
endloop
endfacet
facet normal -1.62131123759852e-13 1.43183668777735e-13 1.0
outer loop
vertex -700.760998735049 -242.404869946907 -9.25000000003344
vertex -690.460998735049 -240.904869946905 -9.25000000003195
vertex -702.960998735049 -242.404869946908 -9.25000000003378
endloop
endfacet
facet normal -1.62131123759852e-13 1.43183668777735e-13 1.0
outer loop
vertex -702.960998735049 -242.404869946908 -9.25000000003378
vertex -690.460998735049 -240.904869946905 -9.25000000003195
vertex -700.760998735049 -240.904869946907 -9.25000000003362
endloop
endfacet
facet normal -1.62131123759852e-13 1.43183668777735e-13 1.0
outer loop
vertex -702.960998735049 -242.404869946908 -9.25000000003378
vertex -700.760998735049 -240.904869946907 -9.25000000003362
vertex -702.960998735049 -240.904869946908 -9.25000000003398
endloop
endfacet
facet normal -1.62131123759852e-13 1.43183668777735e-13 1.0
outer loop
vertex -700.760998735049 -240.904869946907 -9.25000000003362
vertex -690.460998735049 -240.904869946905 -9.25000000003195
vertex -692.660998735049 -240.904869946905 -9.2500000000323
endloop
endfacet
facet normal -1.62131123759852e-13 1.43183668777735e-13 1.0
outer loop
vertex -692.660998735049 -242.404869946905 -9.25000000003211
vertex -700.760998735047 -252.404869946907 -9.250000000032
vertex -692.660998735047 -252.404869946905 -9.25000000003066
endloop
endfacet
facet normal -1.62131123759852e-13 1.43183668777735e-13 1.0
outer loop
vertex -700.760998735047 -252.404869946907 -9.250000000032
vertex -692.660998735049 -242.404869946905 -9.25000000003211
vertex -700.760998735049 -242.404869946907 -9.25000000003344
endloop
endfacet
facet normal -1.62131123759852e-13 1.43183668777735e-13 1.0
outer loop
vertex -690.460998735047 -252.404869946905 -9.25000000003033
vertex -692.660998735046 -253.904869946905 -9.25000000003044
vertex -690.460998735046 -253.904869946905 -9.25000000003009
endloop
endfacet
facet normal -1.62131123759852e-13 1.43183668777735e-13 1.0
outer loop
vertex -692.660998735046 -253.904869946905 -9.25000000003044
vertex -690.460998735047 -252.404869946905 -9.25000000003033
vertex -700.760998735046 -253.904869946907 -9.25000000003176
endloop
endfacet
facet normal -1.62131123759852e-13 1.43183668777735e-13 1.0
outer loop
vertex -700.760998735046 -253.904869946907 -9.25000000003176
vertex -690.460998735047 -252.404869946905 -9.25000000003033
vertex -702.960998735046 -253.904869946907 -9.25000000003212
endloop
endfacet
facet normal -1.62131123759852e-13 1.43183668777735e-13 1.0
outer loop
vertex -702.960998735046 -253.904869946907 -9.25000000003212
vertex -690.460998735047 -252.404869946905 -9.25000000003033
vertex -700.760998735047 -252.404869946907 -9.250000000032
endloop
endfacet
facet normal -1.62131123759852e-13 1.43183668777735e-13 1.0
outer loop
vertex -702.960998735046 -253.904869946907 -9.25000000003212
vertex -700.760998735047 -252.404869946907 -9.250000000032
vertex -702.960998735047 -252.404869946907 -9.25000000003235
endloop
endfacet
facet normal -1.62131123759852e-13 1.43183668777735e-13 1.0
outer loop
vertex -700.760998735047 -252.404869946907 -9.250000000032
vertex -690.460998735047 -252.404869946905 -9.25000000003033
vertex -692.660998735047 -252.404869946905 -9.25000000003066
endloop
endfacet
facet normal -1.62131123759852e-13 1.43183668777735e-13 1.0
outer loop
vertex -692.660998735046 -253.904869946905 -9.25000000003044
vertex -700.760998735046 -255.904869946907 -9.2500000000315
vertex -692.660998735046 -255.904869946905 -9.25000000003018
endloop
endfacet
facet normal -1.62131123759852e-13 1.43183668777735e-13 1.0
outer loop
vertex -700.760998735046 -255.904869946907 -9.2500000000315
vertex -692.660998735046 -253.904869946905 -9.25000000003044
vertex -700.760998735046 -253.904869946907 -9.25000000003176
endloop
endfacet
facet normal -1.62131123759852e-13 1.43183668777735e-13 1.0
outer loop
vertex -690.460998735046 -255.904869946905 -9.25000000002982
vertex -702.960998735026 -345.804869946908 -9.25000000001896
vertex -690.460998735026 -345.804869946905 -9.25000000001694
endloop
endfacet
facet normal -1.62131123759852e-13 1.43183668777735e-13 1.0
outer loop
vertex -702.960998735026 -345.804869946908 -9.25000000001896
vertex -690.460998735046 -255.904869946905 -9.25000000002982
vertex -700.760998735046 -255.904869946907 -9.2500000000315
endloop
endfacet
facet normal -1.62131123759852e-13 1.43183668777735e-13 1.0
outer loop
vertex -702.960998735026 -345.804869946908 -9.25000000001896
vertex -700.760998735046 -255.904869946907 -9.2500000000315
vertex -702.960998735046 -255.904869946907 -9.25000000003185
endloop
endfacet
facet normal -1.62131123759852e-13 1.43183668777735e-13 1.0
outer loop
vertex -700.760998735046 -255.904869946907 -9.2500000000315
vertex -690.460998735046 -255.904869946905 -9.25000000002982
vertex -692.660998735046 -255.904869946905 -9.25000000003018
endloop
endfacet
facet normal 0.866025403784369 2.62832010121073e-13 0.500000000000122
outer loop
vertex -697.789832561263 -437.804869946906 -3.62286500000495
vertex -697.591862865534 -438.804869946906 -3.88086413053229
vertex -697.591862865534 -437.804869946906 -3.88086413053244
endloop
endfacet
facet normal 0.707106781186437 2.57385757019017e-13 0.707106781186658
outer loop
vertex -697.591862865534 -438.804869946906 -3.88086413053229
vertex -697.789832561263 -437.804869946906 -3.62286500000495
vertex -697.789832561263 -438.804869946906 -3.6228650000048
endloop
endfacet
facet normal 2.20839305458944e-13 -1.0 1.43159122879028e-13
outer loop
vertex -692.660998735047 -255.904869946904 -3.00000000003017
vertex -690.460998735046 -255.904869946905 -9.25000000002982
vertex -690.460998735047 -255.904869946904 -3.00000000002981
endloop
endfacet
facet normal 2.20839305458944e-13 -1.0 1.43159122879028e-13
outer loop
vertex -690.460998735046 -255.904869946905 -9.25000000002982
vertex -692.660998735047 -255.904869946904 -3.00000000003017
vertex -692.660998735046 -255.904869946905 -9.25000000003018
endloop
endfacet
facet normal -1.60792028430194e-08 -2.46189610012581e-11 1.0
outer loop
vertex -700.760998735007 -434.304869946906 -3.00000000000595
vertex -702.960998735007 -436.304869946907 -3.00000000000602
vertex -700.760998735007 -436.304869946906 -3.00000000000567
endloop
endfacet
facet normal -1.60792028430194e-08 -2.46189610012581e-11 1.0
outer loop
vertex -700.760998735008 -430.804869946906 -3.00000000000644
vertex -702.960998735008 -430.804869946907 -3.00000000000679
vertex -700.760998735008 -432.804869946906 -3.00000000000615
endloop
endfacet
facet normal -1.60792028430194e-08 -2.46189610012581e-11 1.0
outer loop
vertex -700.710998735027 -345.804869946906 -2.99999939710861
vertex -702.960998735026 -350.804869946907 -3.00000000001824
vertex -700.710998735026 -350.804869946906 -2.99999939710789
endloop
endfacet
facet normal -1.60792028430194e-08 -2.46189610012581e-11 1.0
outer loop
vertex -700.760998735047 -253.904869946906 -3.00000000003176
vertex -702.960998735047 -255.904869946907 -3.00000000003184
vertex -700.760998735047 -255.904869946906 -3.00000000003149
endloop
endfacet
facet normal -1.60792028430194e-08 -2.46189610012581e-11 1.0
outer loop
vertex -700.76099873505 -242.404869946906 -3.00000000003343
vertex -702.960998735048 -252.404869946907 -3.00000000003233
vertex -700.760998735048 -252.404869946906 -3.000000000032
endloop
endfacet
facet normal -1.60792028430194e-08 -2.46189610012581e-11 1.0
outer loop
vertex -700.760998735051 -237.904869946906 -3.00000000003406
vertex -702.96099873505 -240.904869946907 -3.00000000003399
vertex -700.76099873505 -240.904869946906 -3.00000000003363
endloop
endfacet
facet normal -1.60792028430194e-08 -2.46189610012581e-11 1.0
outer loop
vertex -705.410998735007 -438.804869946907 -3.00000000000605
vertex -702.960998735007 -437.804869946907 -3.00000000000579
vertex -705.410998735051 -237.904869946907 -3.00000000003481
endloop
endfacet
facet normal -1.60792028430194e-08 -2.46189610012581e-11 1.0
outer loop
vertex -702.960998735007 -437.804869946907 -3.00000000000579
vertex -705.410998735007 -438.804869946907 -3.00000000000605
vertex -697.956728735007 -438.804869946906 -3.00000000000483
endloop
endfacet
facet normal -1.60792028430194e-08 -2.46189610012581e-11 1.0
outer loop
vertex -702.960998735007 -437.804869946907 -3.00000000000579
vertex -697.956728735007 -438.804869946906 -3.00000000000483
vertex -697.956728735007 -437.804869946906 -3.00000000000498
endloop
endfacet
facet normal -1.60792028430194e-08 -2.46189610012581e-11 1.0
outer loop
vertex -705.410998735051 -237.904869946907 -3.00000000003481
vertex -702.960998735007 -437.804869946907 -3.00000000000579
vertex -702.960998735007 -436.304869946907 -3.00000000000602
endloop
endfacet
facet normal -1.60792028430194e-08 -2.46189610012581e-11 1.0
outer loop
vertex -705.410998735051 -237.904869946907 -3.00000000003481
vertex -702.960998735007 -436.304869946907 -3.00000000000602
vertex -702.960998735007 -434.304869946907 -3.00000000000631
endloop
endfacet
facet normal -1.60792028430194e-08 -2.46189610012581e-11 1.0
outer loop
vertex -702.960998735007 -434.304869946907 -3.00000000000631
vertex -702.960998735007 -436.304869946907 -3.00000000000602
vertex -700.760998735007 -434.304869946906 -3.00000000000595
endloop
endfacet
facet normal -1.60792028430194e-08 -2.46189610012581e-11 1.0
outer loop
vertex -705.410998735051 -237.904869946907 -3.00000000003481
vertex -702.960998735007 -434.304869946907 -3.00000000000631
vertex -702.960998735008 -432.804869946907 -3.0000000000065
endloop
endfacet
facet normal -1.60792028430194e-08 -2.46189610012581e-11 1.0
outer loop
vertex -705.410998735051 -237.904869946907 -3.00000000003481
vertex -702.960998735008 -432.804869946907 -3.0000000000065
vertex -702.960998735008 -430.804869946907 -3.00000000000679
endloop
endfacet
facet normal -1.60792028430194e-08 -2.46189610012581e-11 1.0
outer loop
vertex -702.960998735008 -430.804869946907 -3.00000000000679
vertex -702.960998735008 -432.804869946907 -3.0000000000065
vertex -700.760998735008 -432.804869946906 -3.00000000000615
endloop
endfacet
facet normal -1.60792028430194e-08 -2.46189610012581e-11 1.0
outer loop
vertex -705.410998735051 -237.904869946907 -3.00000000003481
vertex -702.960998735008 -430.804869946907 -3.00000000000679
vertex -702.960998735026 -350.804869946907 -3.00000000001824
endloop
endfacet
facet normal -1.60792028430194e-08 -2.46189610012581e-11 1.0
outer loop
vertex -705.410998735051 -237.904869946907 -3.00000000003481
vertex -702.960998735026 -350.804869946907 -3.00000000001824
vertex -702.960998735027 -345.804869946907 -3.00000000001896
endloop
endfacet
facet normal -1.60792028430194e-08 -2.46189610012581e-11 1.0
outer loop
vertex -702.960998735027 -345.804869946907 -3.00000000001896
vertex -702.960998735026 -350.804869946907 -3.00000000001824
vertex -700.710998735027 -345.804869946906 -2.99999939710861
endloop
endfacet
facet normal -1.60792028430194e-08 -2.46189610012581e-11 1.0
outer loop
vertex -705.410998735051 -237.904869946907 -3.00000000003481
vertex -702.960998735027 -345.804869946907 -3.00000000001896
vertex -702.960998735047 -255.904869946907 -3.00000000003184
endloop
endfacet
facet normal -1.60792028430194e-08 -2.46189610012581e-11 1.0
outer loop
vertex -705.410998735051 -237.904869946907 -3.00000000003481
vertex -702.960998735047 -255.904869946907 -3.00000000003184
vertex -702.960998735047 -253.904869946907 -3.00000000003212
endloop
endfacet
facet normal -1.60792028430194e-08 -2.46189610012581e-11 1.0
outer loop
vertex -702.960998735047 -253.904869946907 -3.00000000003212
vertex -702.960998735047 -255.904869946907 -3.00000000003184
vertex -700.760998735047 -253.904869946906 -3.00000000003176
endloop
endfacet
facet normal -1.60792028430194e-08 -2.46189610012581e-11 1.0
outer loop
vertex -705.410998735051 -237.904869946907 -3.00000000003481
vertex -702.960998735047 -253.904869946907 -3.00000000003212
vertex -702.960998735048 -252.404869946907 -3.00000000003233
endloop
endfacet
facet normal -1.60792028430194e-08 -2.46189610012581e-11 1.0
outer loop
vertex -705.410998735051 -237.904869946907 -3.00000000003481
vertex -702.960998735048 -252.404869946907 -3.00000000003233
vertex -702.96099873505 -242.404869946907 -3.00000000003378
endloop
endfacet
facet normal -1.60792028430194e-08 -2.46189610012581e-11 1.0
outer loop
vertex -702.96099873505 -242.404869946907 -3.00000000003378
vertex -702.960998735048 -252.404869946907 -3.00000000003233
vertex -700.76099873505 -242.404869946906 -3.00000000003343
endloop
endfacet
facet normal -1.60792028430194e-08 -2.46189610012581e-11 1.0
outer loop
vertex -705.410998735051 -237.904869946907 -3.00000000003481
vertex -702.96099873505 -242.404869946907 -3.00000000003378
vertex -702.96099873505 -240.904869946907 -3.00000000003399
endloop
endfacet
facet normal -1.60792028430194e-08 -2.46189610012581e-11 1.0
outer loop
vertex -705.410998735051 -237.904869946907 -3.00000000003481
vertex -702.96099873505 -240.904869946907 -3.00000000003399
vertex -700.760998735051 -237.904869946906 -3.00000000003406
endloop
endfacet
facet normal 0.500000130533705 2.34399107964183e-13 0.866025328420756
outer loop
vertex -698.710999257161 -350.804869946906 -6.46410131370031
vertex -699.539426286094 -345.804869946906 -5.82842669844284
vertex -699.539426286093 -350.804869946906 -5.82842669844212
endloop
endfacet
facet normal 0.707106887766861 2.57385765298202e-13 0.707106674606218
outer loop
vertex -699.539426286094 -345.804869946906 -5.82842669844284
vertex -698.710999257161 -350.804869946906 -6.46410131370031
vertex -698.710999257162 -345.804869946906 -6.46410131370102
endloop
endfacet
facet normal -1.0 -2.20839305458967e-13 -1.62152943567184e-13
outer loop
vertex -690.460998735046 -253.904869946905 -9.25000000003009
vertex -690.460998735048 -252.404869946904 -3.00000000003032
vertex -690.460998735047 -252.404869946905 -9.25000000003033
endloop
endfacet
facet normal -1.0 -2.20839305458967e-13 -1.62152943567184e-13
outer loop
vertex -690.460998735048 -252.404869946904 -3.00000000003032
vertex -690.460998735046 -253.904869946905 -9.25000000003009
vertex -690.460998735047 -253.904869946904 -3.00000000003009
endloop
endfacet
facet normal -1.0 -2.20839305458967e-13 -1.62152943567184e-13
outer loop
vertex -690.460998735026 -345.804869946905 -9.25000000001694
vertex -690.460998735047 -255.904869946904 -3.00000000002981
vertex -690.460998735046 -255.904869946905 -9.25000000002982
endloop
endfacet
facet normal -1.0 -2.20839305458967e-13 -1.62152943567184e-13
outer loop
vertex -690.460998735047 -255.904869946904 -3.00000000002981
vertex -690.460998735026 -345.804869946905 -9.25000000001694
vertex -690.460998735027 -345.804869946904 -3.00000000001694
endloop
endfacet
facet normal 1.0 2.20839305458967e-13 1.62152943567184e-13
outer loop
vertex -702.960998735047 -255.904869946907 -3.00000000003184
vertex -702.960998735026 -345.804869946908 -9.25000000001896
vertex -702.960998735046 -255.904869946907 -9.25000000003185
endloop
endfacet
facet normal 1.0 2.20839305458967e-13 1.62152943567184e-13
outer loop
vertex -702.960998735026 -345.804869946908 -9.25000000001896
vertex -702.960998735047 -255.904869946907 -3.00000000003184
vertex -702.960998735027 -345.804869946907 -3.00000000001896
endloop
endfacet
facet normal -1.0 -2.20839305458967e-13 -1.62152943567184e-13
outer loop
vertex -690.460998735008 -434.304869946904 -3.00000000000429
vertex -690.460998735007 -432.804869946905 -9.25000000000448
vertex -690.460998735007 -434.304869946905 -9.25000000000428
endloop
endfacet
facet normal -1.0 -2.20839305458967e-13 -1.62152943567184e-13
outer loop
vertex -690.460998735007 -432.804869946905 -9.25000000000448
vertex -690.460998735008 -434.304869946904 -3.00000000000429
vertex -690.460998735008 -432.804869946904 -3.00000000000448
endloop
endfacet
facet normal -1.0 -2.20839305458967e-13 -1.62152943567184e-13
outer loop
vertex -690.46099873505 -242.404869946904 -3.00000000003176
vertex -690.460998735049 -240.904869946905 -9.25000000003195
vertex -690.460998735049 -242.404869946905 -9.25000000003176
endloop
endfacet
facet normal -1.0 -2.20839305458967e-13 -1.62152943567184e-13
outer loop
vertex -690.460998735049 -240.904869946905 -9.25000000003195
vertex -690.46099873505 -242.404869946904 -3.00000000003176
vertex -690.46099873505 -240.904869946904 -3.00000000003196
endloop
endfacet
facet normal -1.17505131523904e-13 1.4556573149697e-13 1.0
outer loop
vertex -690.460998735006 -436.304869946905 -9.25000000000399
vertex -692.660998735006 -436.304869946905 -9.25000000000434
vertex -690.460998735006 -437.804869946905 -9.25000000000284
endloop
endfacet
facet normal -1.17505131523904e-13 1.4556573149697e-13 1.0
outer loop
vertex -690.460998735006 -437.804869946905 -9.25000000000284
vertex -702.960998735006 -436.304869946908 -9.25000000000601
vertex -702.960998735006 -437.804869946908 -9.25000000000486
endloop
endfacet
facet normal -1.17505131523904e-13 1.4556573149697e-13 1.0
outer loop
vertex -702.960998735006 -436.304869946908 -9.25000000000601
vertex -690.460998735006 -437.804869946905 -9.25000000000284
vertex -692.660998735006 -436.304869946905 -9.25000000000434
endloop
endfacet
facet normal -1.17505131523904e-13 1.4556573149697e-13 1.0
outer loop
vertex -702.960998735006 -436.304869946908 -9.25000000000601
vertex -692.660998735006 -436.304869946905 -9.25000000000434
vertex -700.760998735006 -436.304869946907 -9.25000000000566
endloop
endfacet
facet normal -1.17505131523904e-13 1.4556573149697e-13 1.0
outer loop
vertex -692.660998735007 -434.304869946905 -9.25000000000463
vertex -700.760998735006 -436.304869946907 -9.25000000000566
vertex -692.660998735006 -436.304869946905 -9.25000000000434
endloop
endfacet
facet normal -1.17505131523904e-13 1.4556573149697e-13 1.0
outer loop
vertex -700.760998735006 -436.304869946907 -9.25000000000566
vertex -692.660998735007 -434.304869946905 -9.25000000000463
vertex -700.760998735007 -434.304869946907 -9.25000000000594
endloop
endfacet
facet normal -1.17505131523904e-13 1.4556573149697e-13 1.0
outer loop
vertex -700.760998735007 -434.304869946907 -9.25000000000594
vertex -692.660998735007 -434.304869946905 -9.25000000000463
vertex -690.460998735007 -434.304869946905 -9.25000000000428
endloop
endfacet
facet normal -1.17505131523904e-13 1.4556573149697e-13 1.0
outer loop
vertex -700.760998735007 -434.304869946907 -9.25000000000594
vertex -690.460998735007 -434.304869946905 -9.25000000000428
vertex -690.460998735007 -432.804869946905 -9.25000000000448
endloop
endfacet
facet normal -1.17505131523904e-13 1.4556573149697e-13 1.0
outer loop
vertex -690.460998735025 -350.804869946905 -9.25000000001623
vertex -692.660998735007 -430.804869946905 -9.25000000000512
vertex -690.460998735007 -430.804869946905 -9.25000000000476
endloop
endfacet
facet normal -1.17505131523904e-13 1.4556573149697e-13 1.0
outer loop
vertex -692.660998735007 -430.804869946905 -9.25000000000512
vertex -690.460998735025 -350.804869946905 -9.25000000001623
vertex -700.760998735007 -430.804869946907 -9.25000000000506
endloop
endfacet
facet normal -1.17505131523904e-13 1.4556573149697e-13 1.0
outer loop
vertex -700.760998735007 -430.804869946907 -9.25000000000506
vertex -690.460998735025 -350.804869946905 -9.25000000001623
vertex -702.960998735007 -430.804869946908 -9.25000000000541
endloop
endfacet
facet normal -1.17505131523904e-13 1.4556573149697e-13 1.0
outer loop
vertex -702.960998735007 -430.804869946908 -9.25000000000541
vertex -690.460998735025 -350.804869946905 -9.25000000001623
vertex -702.960998735025 -350.804869946908 -9.25000000001825
endloop
endfacet
facet normal -1.17505131523904e-13 1.4556573149697e-13 1.0
outer loop
vertex -692.660998735007 -430.804869946905 -9.25000000000512
vertex -700.760998735007 -432.804869946907 -9.25000000000477
vertex -692.660998735007 -432.804869946905 -9.25000000000483
endloop
endfacet
facet normal -1.17505131523904e-13 1.4556573149697e-13 1.0
outer loop
vertex -700.760998735007 -432.804869946907 -9.25000000000477
vertex -692.660998735007 -430.804869946905 -9.25000000000512
vertex -700.760998735007 -430.804869946907 -9.25000000000506
endloop
endfacet
facet normal -1.17505131523904e-13 1.4556573149697e-13 1.0
outer loop
vertex -700.760998735007 -434.304869946907 -9.25000000000594
vertex -702.960998735007 -432.804869946908 -9.25000000000513
vertex -702.960998735007 -434.304869946908 -9.2500000000063
endloop
endfacet
facet normal -1.17505131523904e-13 1.4556573149697e-13 1.0
outer loop
vertex -702.960998735007 -432.804869946908 -9.25000000000513
vertex -700.760998735007 -434.304869946907 -9.25000000000594
vertex -690.460998735007 -432.804869946905 -9.25000000000448
endloop
endfacet
facet normal -1.17505131523904e-13 1.4556573149697e-13 1.0
outer loop
vertex -702.960998735007 -432.804869946908 -9.25000000000513
vertex -690.460998735007 -432.804869946905 -9.25000000000448
vertex -692.660998735007 -432.804869946905 -9.25000000000483
endloop
endfacet
facet normal -1.17505131523904e-13 1.4556573149697e-13 1.0
outer loop
vertex -702.960998735007 -432.804869946908 -9.25000000000513
vertex -692.660998735007 -432.804869946905 -9.25000000000483
vertex -700.760998735007 -432.804869946907 -9.25000000000477
endloop
endfacet
facet normal 1.0 2.20839305458967e-13 1.62152943567184e-13
outer loop
vertex -702.960998735007 -436.304869946907 -3.00000000000602
vertex -702.960998735006 -437.804869946908 -9.25000000000486
vertex -702.960998735006 -436.304869946908 -9.25000000000601
endloop
endfacet
facet normal 1.0 2.20839305458967e-13 1.62152943567184e-13
outer loop
vertex -702.960998735006 -437.804869946908 -9.25000000000486
vertex -702.960998735007 -436.304869946907 -3.00000000000602
vertex -702.960998735007 -437.804869946907 -3.00000000000579
endloop
endfacet
facet normal 1.0 2.20839305458967e-13 1.62152943567184e-13
outer loop
vertex -702.960998735026 -350.804869946907 -3.00000000001824
vertex -702.960998735007 -430.804869946908 -9.25000000000541
vertex -702.960998735025 -350.804869946908 -9.25000000001825
endloop
endfacet
facet normal 1.0 2.20839305458967e-13 1.62152943567184e-13
outer loop
vertex -702.960998735007 -430.804869946908 -9.25000000000541
vertex -702.960998735026 -350.804869946907 -3.00000000001824
vertex -702.960998735008 -430.804869946907 -3.00000000000679
endloop
endfacet
facet normal 0.965925865300165 2.5036668385624e-13 0.258818899511084
outer loop
vertex -700.574702196228 -345.804869946906 -4.0352755980623
vertex -700.175100651618 -350.804869946906 -4.9999994778824
vertex -700.175100651619 -345.804869946906 -4.99999947788312
endloop
endfacet
facet normal 0.866025479148096 2.62832008077238e-13 0.499999869466294
outer loop
vertex -700.175100651618 -350.804869946906 -4.9999994778824
vertex -700.574702196228 -345.804869946906 -4.0352755980623
vertex -700.574702196227 -350.804869946906 -4.03527559806159
endloop
endfacet
facet normal 2.20839305458944e-13 -1.0 1.43159122879028e-13
outer loop
vertex -692.660998735007 -436.304869946904 -3.00000000000435
vertex -690.460998735006 -436.304869946905 -9.25000000000399
vertex -690.460998735007 -436.304869946904 -3.000000000004
endloop
endfacet
facet normal 2.20839305458944e-13 -1.0 1.43159122879028e-13
outer loop
vertex -690.460998735006 -436.304869946905 -9.25000000000399
vertex -692.660998735007 -436.304869946904 -3.00000000000435
vertex -692.660998735006 -436.304869946905 -9.25000000000434
endloop
endfacet
facet normal -2.20839305458944e-13 1.0 -1.43159122879028e-13
outer loop
vertex -702.960998735007 -430.804869946908 -9.25000000000541
vertex -700.760998735008 -430.804869946906 -3.00000000000644
vertex -700.760998735007 -430.804869946907 -9.25000000000506
endloop
endfacet
facet normal -2.20839305458944e-13 1.0 -1.43159122879028e-13
outer loop
vertex -700.760998735008 -430.804869946906 -3.00000000000644
vertex -702.960998735007 -430.804869946908 -9.25000000000541
vertex -702.960998735008 -430.804869946907 -3.00000000000679
endloop
endfacet
facet normal 2.20839305458944e-13 -1.0 1.43159122879028e-13
outer loop
vertex -702.960998735007 -436.304869946907 -3.00000000000602
vertex -700.760998735006 -436.304869946907 -9.25000000000566
vertex -700.760998735007 -436.304869946906 -3.00000000000567
endloop
endfacet
facet normal 2.20839305458944e-13 -1.0 1.43159122879028e-13
outer loop
vertex -700.760998735006 -436.304869946907 -9.25000000000566
vertex -702.960998735007 -436.304869946907 -3.00000000000602
vertex -702.960998735006 -436.304869946908 -9.25000000000601
endloop
endfacet
facet normal 0.991444861373793 2.37636009777609e-13 0.130526192220185
outer loop
vertex -697.956728735007 -437.804869946906 -3.00000000000498
vertex -697.91428151459 -438.804869946906 -3.32241864906039
vertex -697.91428151459 -437.804869946906 -3.32241864906053
endloop
endfacet
facet normal 0.965925826289032 2.50366696083811e-13 0.258819045102658
outer loop
vertex -697.91428151459 -438.804869946906 -3.32241864906039
vertex -697.956728735007 -437.804869946906 -3.00000000000498
vertex -697.956728735007 -438.804869946906 -3.00000000000483
endloop
endfacet
facet normal 0.25881919069395 1.95438538785244e-13 0.965925787277951
outer loop
vertex -697.746275497803 -345.804869946906 -6.8637031491298
vertex -698.710999257161 -350.804869946906 -6.46410131370031
vertex -697.746275497802 -350.804869946906 -6.86370314912908
endloop
endfacet
facet normal 0.500000130533705 2.34399107964183e-13 0.866025328420756
outer loop
vertex -698.710999257161 -350.804869946906 -6.46410131370031
vertex -697.746275497803 -345.804869946906 -6.8637031491298
vertex -698.710999257162 -345.804869946906 -6.46410131370102
endloop
endfacet
facet normal -0.991444841699932 -2.00263953657511e-13 0.130526341657909
outer loop
vertex -692.710998735026 -350.804869946904 -3.0000006029266
vertex -692.847295585915 -345.804869946905 -4.03527676279375
vertex -692.847295585914 -350.804869946905 -4.03527676279303
endloop
endfacet
facet normal -0.96592578727795 -1.7626205166334e-13 0.258819190693952
outer loop
vertex -692.847295585915 -345.804869946905 -4.03527676279375
vertex -692.710998735026 -350.804869946904 -3.0000006029266
vertex -692.710998735027 -345.804869946904 -3.0000006029273
endloop
endfacet
facet normal -2.20839305458944e-13 1.0 -1.43159122879028e-13
outer loop
vertex -690.460998735026 -345.804869946905 -9.25000000001694
vertex -692.710998735027 -345.804869946904 -3.0000006029273
vertex -690.460998735027 -345.804869946904 -3.00000000001694
endloop
endfacet
facet normal -2.20839305458944e-13 1.0 -1.43159122879028e-13
outer loop
vertex -692.710998735027 -345.804869946904 -3.0000006029273
vertex -690.460998735026 -345.804869946905 -9.25000000001694
vertex -692.847295585915 -345.804869946905 -4.03527676279375
endloop
endfacet
facet normal -2.20839305458944e-13 1.0 -1.43159122879028e-13
outer loop
vertex -692.847295585915 -345.804869946905 -4.03527676279375
vertex -690.460998735026 -345.804869946905 -9.25000000001694
vertex -693.246897421344 -345.804869946905 -5.00000052215276
endloop
endfacet
facet normal -2.20839305458944e-13 1.0 -1.43159122879028e-13
outer loop
vertex -693.246897421344 -345.804869946905 -5.00000052215276
vertex -690.460998735026 -345.804869946905 -9.25000000001694
vertex -693.882572036602 -345.804869946905 -5.82842755108543
endloop
endfacet
facet normal -2.20839305458944e-13 1.0 -1.43159122879028e-13
outer loop
vertex -693.882572036602 -345.804869946905 -5.82842755108543
vertex -690.460998735026 -345.804869946905 -9.25000000001694
vertex -694.710999257162 -345.804869946905 -6.46410191661038
endloop
endfacet
facet normal -2.20839305458944e-13 1.0 -1.43159122879028e-13
outer loop
vertex -694.710999257162 -345.804869946905 -6.46410191661038
vertex -690.460998735026 -345.804869946905 -9.25000000001694
vertex -695.675723136983 -345.804869946906 -6.86370346121864
endloop
endfacet
facet normal -2.20839305458944e-13 1.0 -1.43159122879028e-13
outer loop
vertex -695.675723136983 -345.804869946906 -6.86370346121864
vertex -690.460998735026 -345.804869946905 -9.25000000001694
vertex -702.960998735026 -345.804869946908 -9.25000000001896
endloop
endfacet
facet normal -2.20839305458944e-13 1.0 -1.43159122879028e-13
outer loop
vertex -695.675723136983 -345.804869946906 -6.86370346121864
vertex -702.960998735026 -345.804869946908 -9.25000000001896
vertex -696.710999337936 -345.804869946906 -7.00000000001795
endloop
endfacet
facet normal -2.20839305458944e-13 1.0 -1.43159122879028e-13
outer loop
vertex -696.710999337936 -345.804869946906 -7.00000000001795
vertex -702.960998735026 -345.804869946908 -9.25000000001896
vertex -697.746275497803 -345.804869946906 -6.8637031491298
endloop
endfacet
facet normal -2.20839305458944e-13 1.0 -1.43159122879028e-13
outer loop
vertex -697.746275497803 -345.804869946906 -6.8637031491298
vertex -702.960998735026 -345.804869946908 -9.25000000001896
vertex -698.710999257162 -345.804869946906 -6.46410131370102
endloop
endfacet
facet normal -2.20839305458944e-13 1.0 -1.43159122879028e-13
outer loop
vertex -698.710999257162 -345.804869946906 -6.46410131370102
vertex -702.960998735026 -345.804869946908 -9.25000000001896
vertex -699.539426286094 -345.804869946906 -5.82842669844284
endloop
endfacet
facet normal -2.20839305458944e-13 1.0 -1.43159122879028e-13
outer loop
vertex -699.539426286094 -345.804869946906 -5.82842669844284
vertex -702.960998735026 -345.804869946908 -9.25000000001896
vertex -700.175100651619 -345.804869946906 -4.99999947788312
endloop
endfacet
facet normal -2.20839305458944e-13 1.0 -1.43159122879028e-13
outer loop
vertex -700.175100651619 -345.804869946906 -4.99999947788312
vertex -702.960998735026 -345.804869946908 -9.25000000001896
vertex -700.574702196228 -345.804869946906 -4.0352755980623
endloop
endfacet
facet normal -2.20839305458944e-13 1.0 -1.43159122879028e-13
outer loop
vertex -700.574702196228 -345.804869946906 -4.0352755980623
vertex -702.960998735026 -345.804869946908 -9.25000000001896
vertex -700.710998735027 -345.804869946906 -2.99999939710861
endloop
endfacet
facet normal -2.20839305458944e-13 1.0 -1.43159122879028e-13
outer loop
vertex -700.710998735027 -345.804869946906 -2.99999939710861
vertex -702.960998735026 -345.804869946908 -9.25000000001896
vertex -702.960998735027 -345.804869946907 -3.00000000001896
endloop
endfacet
facet normal 2.20839305458944e-13 -1.0 1.43159122879028e-13
outer loop
vertex -702.960998735008 -432.804869946907 -3.0000000000065
vertex -700.760998735007 -432.804869946907 -9.25000000000477
vertex -700.760998735008 -432.804869946906 -3.00000000000615
endloop
endfacet
facet normal 2.20839305458944e-13 -1.0 1.43159122879028e-13
outer loop
vertex -700.760998735007 -432.804869946907 -9.25000000000477
vertex -702.960998735008 -432.804869946907 -3.0000000000065
vertex -702.960998735007 -432.804869946908 -9.25000000000513
endloop
endfacet
facet normal -1.51120989516405e-13 1.43159122878995e-13 1.0
outer loop
vertex -696.710998735007 -437.804869946905 -4.24573000000477
vertex -697.033417384062 -438.804869946906 -4.20328277958776
vertex -696.710998735006 -438.804869946905 -4.24573000000463
endloop
endfacet
facet normal 0.258819045102361 1.95438512217703e-13 0.965925826289111
outer loop
vertex -697.033417384062 -438.804869946906 -4.20328277958776
vertex -696.710998735007 -437.804869946905 -4.24573000000477
vertex -697.033417384062 -437.804869946905 -4.20328277958791
endloop
endfacet
facet normal -0.707106781186666 -5.49281838661108e-14 0.707106781186429
outer loop
vertex -695.830134604479 -437.804869946905 -3.88086413053215
vertex -696.088133735006 -438.804869946905 -4.07883382626092
vertex -695.830134604479 -438.804869946905 -3.880864130532
endloop
endfacet
facet normal -0.500000000000137 1.35597844672231e-14 0.86602540378436
outer loop
vertex -696.088133735006 -438.804869946905 -4.07883382626092
vertex -695.830134604479 -437.804869946905 -3.88086413053215
vertex -696.088133735007 -437.804869946905 -4.07883382626106
endloop
endfacet
facet normal 0.866025479148097 2.62832008077238e-13 0.499999869466293
outer loop
vertex -700.175100651619 -345.804869946906 -4.99999947788312
vertex -699.539426286093 -350.804869946906 -5.82842669844212
vertex -699.539426286094 -345.804869946906 -5.82842669844284
endloop
endfacet
facet normal 0.707106887766863 2.57385765298202e-13 0.707106674606216
outer loop
vertex -699.539426286093 -350.804869946906 -5.82842669844212
vertex -700.175100651619 -345.804869946906 -4.99999947788312
vertex -700.175100651618 -350.804869946906 -4.9999994778824
endloop
endfacet
facet normal -0.991444861373835 -2.00263979395702e-13 0.130526192219864
outer loop
vertex -695.465268735006 -438.804869946905 -3.00000000000443
vertex -695.507715955424 -437.804869946905 -3.32241864906014
vertex -695.507715955423 -438.804869946905 -3.32241864906
endloop
endfacet
facet normal -0.965925826289115 -1.76262081121306e-13 0.258819045102345
outer loop
vertex -695.507715955424 -437.804869946905 -3.32241864906014
vertex -695.465268735006 -438.804869946905 -3.00000000000443
vertex -695.465268735007 -437.804869946905 -3.00000000000457
endloop
endfacet
facet normal 2.20839305458944e-13 -1.0 1.43159122879028e-13
outer loop
vertex -692.660998735008 -432.804869946904 -3.00000000000483
vertex -690.460998735007 -432.804869946905 -9.25000000000448
vertex -690.460998735008 -432.804869946904 -3.00000000000448
endloop
endfacet
facet normal 2.20839305458944e-13 -1.0 1.43159122879028e-13
outer loop
vertex -690.460998735007 -432.804869946905 -9.25000000000448
vertex -692.660998735008 -432.804869946904 -3.00000000000483
vertex -692.660998735007 -432.804869946905 -9.25000000000483
endloop
endfacet
facet normal -2.20839305458944e-13 1.0 -1.43159122879028e-13
outer loop
vertex -690.460998735006 -437.804869946905 -9.25000000000284
vertex -695.465268735007 -437.804869946905 -3.00000000000457
vertex -690.460998735007 -437.804869946904 -3.00000000000376
endloop
endfacet
facet normal -2.20839305458944e-13 1.0 -1.43159122879028e-13
outer loop
vertex -695.465268735007 -437.804869946905 -3.00000000000457
vertex -690.460998735006 -437.804869946905 -9.25000000000284
vertex -695.507715955424 -437.804869946905 -3.32241864906014
endloop
endfacet
facet normal -2.20839305458944e-13 1.0 -1.43159122879028e-13
outer loop
vertex -695.507715955424 -437.804869946905 -3.32241864906014
vertex -690.460998735006 -437.804869946905 -9.25000000000284
vertex -695.63216490875 -437.804869946905 -3.6228650000046
endloop
endfacet
facet normal -2.20839305458944e-13 1.0 -1.43159122879028e-13
outer loop
vertex -695.63216490875 -437.804869946905 -3.6228650000046
vertex -690.460998735006 -437.804869946905 -9.25000000000284
vertex -695.830134604479 -437.804869946905 -3.88086413053215
endloop
endfacet
facet normal -2.20839305458944e-13 1.0 -1.43159122879028e-13
outer loop
vertex -695.830134604479 -437.804869946905 -3.88086413053215
vertex -690.460998735006 -437.804869946905 -9.25000000000284
vertex -696.088133735007 -437.804869946905 -4.07883382626106
endloop
endfacet
facet normal -2.20839305458944e-13 1.0 -1.43159122879028e-13
outer loop
vertex -696.088133735007 -437.804869946905 -4.07883382626106
vertex -690.460998735006 -437.804869946905 -9.25000000000284
vertex -702.960998735006 -437.804869946908 -9.25000000000486
endloop
endfacet
facet normal -2.20839305458944e-13 1.0 -1.43159122879028e-13
outer loop
vertex -696.088133735007 -437.804869946905 -4.07883382626106
vertex -702.960998735006 -437.804869946908 -9.25000000000486
vertex -696.388580085951 -437.804869946905 -4.20328277958781
endloop
endfacet
facet normal -2.20839305458944e-13 1.0 -1.43159122879028e-13
outer loop
vertex -696.388580085951 -437.804869946905 -4.20328277958781
vertex -702.960998735006 -437.804869946908 -9.25000000000486
vertex -696.710998735007 -437.804869946905 -4.24573000000477
endloop
endfacet
facet normal -2.20839305458944e-13 1.0 -1.43159122879028e-13
outer loop
vertex -696.710998735007 -437.804869946905 -4.24573000000477
vertex -702.960998735006 -437.804869946908 -9.25000000000486
vertex -697.033417384062 -437.804869946905 -4.20328277958791
endloop
endfacet
facet normal -2.20839305458944e-13 1.0 -1.43159122879028e-13
outer loop
vertex -697.033417384062 -437.804869946905 -4.20328277958791
vertex -702.960998735006 -437.804869946908 -9.25000000000486
vertex -697.333863735007 -437.804869946906 -4.07883382626126
endloop
endfacet
facet normal -2.20839305458944e-13 1.0 -1.43159122879028e-13
outer loop
vertex -697.333863735007 -437.804869946906 -4.07883382626126
vertex -702.960998735006 -437.804869946908 -9.25000000000486
vertex -697.591862865534 -437.804869946906 -3.88086413053244
endloop
endfacet
facet normal -2.20839305458944e-13 1.0 -1.43159122879028e-13
outer loop
vertex -697.591862865534 -437.804869946906 -3.88086413053244
vertex -702.960998735006 -437.804869946908 -9.25000000000486
vertex -697.789832561263 -437.804869946906 -3.62286500000495
endloop
endfacet
facet normal -2.20839305458944e-13 1.0 -1.43159122879028e-13
outer loop
vertex -697.789832561263 -437.804869946906 -3.62286500000495
vertex -702.960998735006 -437.804869946908 -9.25000000000486
vertex -697.91428151459 -437.804869946906 -3.32241864906053
endloop
endfacet
facet normal -2.20839305458944e-13 1.0 -1.43159122879028e-13
outer loop
vertex -697.91428151459 -437.804869946906 -3.32241864906053
vertex -702.960998735006 -437.804869946908 -9.25000000000486
vertex -697.956728735007 -437.804869946906 -3.00000000000498
endloop
endfacet
facet normal -2.20839305458944e-13 1.0 -1.43159122879028e-13
outer loop
vertex -697.956728735007 -437.804869946906 -3.00000000000498
vertex -702.960998735006 -437.804869946908 -9.25000000000486
vertex -702.960998735007 -437.804869946907 -3.00000000000579
endloop
endfacet
facet normal 0.499999999999845 2.34399089926187e-13 0.866025403784528
outer loop
vertex -697.333863735006 -438.804869946906 -4.07883382626112
vertex -697.591862865534 -437.804869946906 -3.88086413053244
vertex -697.591862865534 -438.804869946906 -3.88086413053229
endloop
endfacet
facet normal 0.707106781186437 2.57385757019017e-13 0.707106781186658
outer loop
vertex -697.591862865534 -437.804869946906 -3.88086413053244
vertex -697.333863735006 -438.804869946906 -4.07883382626112
vertex -697.333863735007 -437.804869946906 -4.07883382626126
endloop
endfacet
facet normal -0.499999869466289 1.35598240832341e-14 0.866025479148099
outer loop
vertex -694.710999257162 -345.804869946905 -6.46410191661038
vertex -695.675723136982 -350.804869946906 -6.86370346121792
vertex -694.710999257161 -350.804869946905 -6.46410191660967
endloop
endfacet
facet normal -0.25881889951109 8.11237136348606e-14 0.965925865300163
outer loop
vertex -695.675723136982 -350.804869946906 -6.86370346121792
vertex -694.710999257162 -345.804869946905 -6.46410191661038
vertex -695.675723136983 -345.804869946906 -6.86370346121864
endloop
endfacet
facet normal 1.0 2.20839305458967e-13 1.62152943567184e-13
outer loop
vertex -700.760998735007 -434.304869946906 -3.00000000000595
vertex -700.760998735006 -436.304869946907 -9.25000000000566
vertex -700.760998735007 -434.304869946907 -9.25000000000594
endloop
endfacet
facet normal 1.0 2.20839305458967e-13 1.62152943567184e-13
outer loop
vertex -700.760998735006 -436.304869946907 -9.25000000000566
vertex -700.760998735007 -434.304869946906 -3.00000000000595
vertex -700.760998735007 -436.304869946906 -3.00000000000567
endloop
endfacet
facet normal -1.0 -2.20839305458967e-13 -1.62152943567184e-13
outer loop
vertex -692.660998735007 -436.304869946904 -3.00000000000435
vertex -692.660998735007 -434.304869946905 -9.25000000000463
vertex -692.660998735006 -436.304869946905 -9.25000000000434
endloop
endfacet
facet normal -1.0 -2.20839305458967e-13 -1.62152943567184e-13
outer loop
vertex -692.660998735007 -434.304869946905 -9.25000000000463
vertex -692.660998735007 -436.304869946904 -3.00000000000435
vertex -692.660998735008 -434.304869946904 -3.00000000000464
endloop
endfacet
facet normal -2.20839305458944e-13 1.0 -1.43159122879028e-13
outer loop
vertex -690.460998735007 -430.804869946905 -9.25000000000476
vertex -692.660998735008 -430.804869946904 -3.00000000000512
vertex -690.460998735008 -430.804869946904 -3.00000000000476
endloop
endfacet
facet normal -2.20839305458944e-13 1.0 -1.43159122879028e-13
outer loop
vertex -692.660998735008 -430.804869946904 -3.00000000000512
vertex -690.460998735007 -430.804869946905 -9.25000000000476
vertex -692.660998735007 -430.804869946905 -9.25000000000512
endloop
endfacet
facet normal -0.70710678118666 -5.49281838661084e-14 0.707106781186435
outer loop
vertex -695.830134604479 -438.804869946905 -3.880864130532
vertex -695.63216490875 -437.804869946905 -3.6228650000046
vertex -695.830134604479 -437.804869946905 -3.88086413053215
endloop
endfacet
facet normal -0.866025403784535 -1.19672887242088e-13 0.499999999999833
outer loop
vertex -695.63216490875 -437.804869946905 -3.6228650000046
vertex -695.830134604479 -438.804869946905 -3.880864130532
vertex -695.63216490875 -438.804869946905 -3.62286500000445
endloop
endfacet
facet normal -0.500000000000137 1.35597844672231e-14 0.86602540378436
outer loop
vertex -696.088133735007 -437.804869946905 -4.07883382626106
vertex -696.388580085951 -438.804869946905 -4.20328277958765
vertex -696.088133735006 -438.804869946905 -4.07883382626092
endloop
endfacet
facet normal -0.258819045102685 8.11236758977135e-14 0.965925826289024
outer loop
vertex -696.388580085951 -438.804869946905 -4.20328277958765
vertex -696.088133735007 -437.804869946905 -4.07883382626106
vertex -696.388580085951 -437.804869946905 -4.20328277958781
endloop
endfacet
facet normal -0.96592578727795 -1.7626205166334e-13 0.258819190693954
outer loop
vertex -692.847295585914 -350.804869946905 -4.03527676279303
vertex -693.246897421344 -345.804869946905 -5.00000052215276
vertex -693.246897421343 -350.804869946905 -5.00000052215205
endloop
endfacet
facet normal -0.866025328420764 -1.19672851911692e-13 0.500000130533692
outer loop
vertex -693.246897421344 -345.804869946905 -5.00000052215276
vertex -692.847295585914 -350.804869946905 -4.03527676279303
vertex -692.847295585915 -345.804869946905 -4.03527676279375
endloop
endfacet
facet normal 1.50727337564281e-07 1.43159156165547e-13 0.999999999999989
outer loop
vertex -696.710999337936 -345.804869946906 -7.00000000001795
vertex -697.746275497802 -350.804869946906 -6.86370314912908
vertex -696.710999337935 -350.804869946906 -7.00000000001722
endloop
endfacet
facet normal 0.258819190693949 1.95438538785244e-13 0.965925787277951
outer loop
vertex -697.746275497802 -350.804869946906 -6.86370314912908
vertex -696.710999337936 -345.804869946906 -7.00000000001795
vertex -697.746275497803 -345.804869946906 -6.8637031491298
endloop
endfacet
facet normal -0.707106674606219 -5.49281450709979e-14 0.707106887766859
outer loop
vertex -693.882572036601 -350.804869946905 -5.82842755108471
vertex -693.246897421344 -345.804869946905 -5.00000052215276
vertex -693.882572036602 -345.804869946905 -5.82842755108543
endloop
endfacet
facet normal -0.866025328420764 -1.19672851911692e-13 0.500000130533692
outer loop
vertex -693.246897421344 -345.804869946905 -5.00000052215276
vertex -693.882572036601 -350.804869946905 -5.82842755108471
vertex -693.246897421343 -350.804869946905 -5.00000052215205
endloop
endfacet
facet normal -1.0 -2.20839305458967e-13 -1.62152943567184e-13
outer loop
vertex -692.660998735008 -432.804869946904 -3.00000000000483
vertex -692.660998735007 -430.804869946905 -9.25000000000512
vertex -692.660998735007 -432.804869946905 -9.25000000000483
endloop
endfacet
facet normal -1.0 -2.20839305458967e-13 -1.62152943567184e-13
outer loop
vertex -692.660998735007 -430.804869946905 -9.25000000000512
vertex -692.660998735008 -432.804869946904 -3.00000000000483
vertex -692.660998735008 -430.804869946904 -3.00000000000512
endloop
endfacet
facet normal -0.866025403784538 -1.19672887242089e-13 0.499999999999828
outer loop
vertex -695.63216490875 -438.804869946905 -3.62286500000445
vertex -695.507715955424 -437.804869946905 -3.32241864906014
vertex -695.63216490875 -437.804869946905 -3.6228650000046
endloop
endfacet
facet normal -0.965925826289115 -1.76262081121306e-13 0.258819045102345
outer loop
vertex -695.507715955424 -437.804869946905 -3.32241864906014
vertex -695.63216490875 -438.804869946905 -3.62286500000445
vertex -695.507715955423 -438.804869946905 -3.32241864906
endloop
endfacet
facet normal 2.20839305458944e-13 -1.0 1.43159122879028e-13
outer loop
vertex -695.465268735006 -438.804869946905 -3.00000000000443
vertex -688.010998735005 -438.804869946904 -10.7000003665722
vertex -688.010998735007 -438.804869946903 -3.00000000000322
endloop
endfacet
facet normal 2.20839305458944e-13 -1.0 1.43159122879028e-13
outer loop
vertex -688.010998735005 -438.804869946904 -10.7000003665722
vertex -695.465268735006 -438.804869946905 -3.00000000000443
vertex -695.507715955423 -438.804869946905 -3.32241864906
endloop
endfacet
facet normal 2.20839305458944e-13 -1.0 1.43159122879028e-13
outer loop
vertex -688.010998735005 -438.804869946904 -10.7000003665722
vertex -695.507715955423 -438.804869946905 -3.32241864906
vertex -695.63216490875 -438.804869946905 -3.62286500000445
endloop
endfacet
facet normal 2.20839305458944e-13 -1.0 1.43159122879028e-13
outer loop
vertex -688.010998735005 -438.804869946904 -10.7000003665722
vertex -695.63216490875 -438.804869946905 -3.62286500000445
vertex -695.830134604479 -438.804869946905 -3.880864130532
endloop
endfacet
facet normal 2.20839305458944e-13 -1.0 1.43159122879028e-13
outer loop
vertex -688.010998735005 -438.804869946904 -10.7000003665722
vertex -695.830134604479 -438.804869946905 -3.880864130532
vertex -696.088133735006 -438.804869946905 -4.07883382626092
endloop
endfacet
facet normal 2.20839305458944e-13 -1.0 1.43159122879028e-13
outer loop
vertex -688.010998735005 -438.804869946904 -10.7000003665722
vertex -696.088133735006 -438.804869946905 -4.07883382626092
vertex -705.410998735005 -438.804869946908 -10.6999988108955
endloop
endfacet
facet normal 2.20839305458944e-13 -1.0 1.43159122879028e-13
outer loop
vertex -705.410998735005 -438.804869946908 -10.6999988108955
vertex -696.088133735006 -438.804869946905 -4.07883382626092
vertex -696.388580085951 -438.804869946905 -4.20328277958765
endloop
endfacet
facet normal 2.20839305458944e-13 -1.0 1.43159122879028e-13
outer loop
vertex -705.410998735005 -438.804869946908 -10.6999988108955
vertex -696.388580085951 -438.804869946905 -4.20328277958765
vertex -696.710998735006 -438.804869946905 -4.24573000000463
endloop
endfacet
facet normal 2.20839305458944e-13 -1.0 1.43159122879028e-13
outer loop
vertex -705.410998735005 -438.804869946908 -10.6999988108955
vertex -696.710998735006 -438.804869946905 -4.24573000000463
vertex -697.033417384062 -438.804869946906 -4.20328277958776
endloop
endfacet
facet normal 2.20839305458944e-13 -1.0 1.43159122879028e-13
outer loop
vertex -705.410998735005 -438.804869946908 -10.6999988108955
vertex -697.033417384062 -438.804869946906 -4.20328277958776
vertex -697.333863735006 -438.804869946906 -4.07883382626112
endloop
endfacet
facet normal 2.20839305458944e-13 -1.0 1.43159122879028e-13
outer loop
vertex -705.410998735005 -438.804869946908 -10.6999988108955
vertex -697.333863735006 -438.804869946906 -4.07883382626112
vertex -697.591862865534 -438.804869946906 -3.88086413053229
endloop
endfacet
facet normal 2.20839305458944e-13 -1.0 1.43159122879028e-13
outer loop
vertex -705.410998735005 -438.804869946908 -10.6999988108955
vertex -697.591862865534 -438.804869946906 -3.88086413053229
vertex -697.789832561263 -438.804869946906 -3.6228650000048
endloop
endfacet
facet normal 2.20839305458944e-13 -1.0 1.43159122879028e-13
outer loop
vertex -705.410998735005 -438.804869946908 -10.6999988108955
vertex -697.789832561263 -438.804869946906 -3.6228650000048
vertex -697.91428151459 -438.804869946906 -3.32241864906039
endloop
endfacet
facet normal 2.20839305458944e-13 -1.0 1.43159122879028e-13
outer loop
vertex -705.410998735005 -438.804869946908 -10.6999988108955
vertex -697.91428151459 -438.804869946906 -3.32241864906039
vertex -697.956728735007 -438.804869946906 -3.00000000000483
endloop
endfacet
facet normal 2.20839305458944e-13 -1.0 1.43159122879028e-13
outer loop
vertex -705.410998735005 -438.804869946908 -10.6999988108955
vertex -697.956728735007 -438.804869946906 -3.00000000000483
vertex -705.410998735007 -438.804869946907 -3.00000000000605
endloop
endfacet
facet normal 1.0 2.20839305458967e-13 1.62152943567184e-13
outer loop
vertex -702.960998735048 -252.404869946907 -3.00000000003233
vertex -702.960998735046 -253.904869946907 -9.25000000003212
vertex -702.960998735047 -252.404869946907 -9.25000000003235
endloop
endfacet
facet normal 1.0 2.20839305458967e-13 1.62152943567184e-13
outer loop
vertex -702.960998735046 -253.904869946907 -9.25000000003212
vertex -702.960998735048 -252.404869946907 -3.00000000003233
vertex -702.960998735047 -253.904869946907 -3.00000000003212
endloop
endfacet
facet normal -0.707106674606221 -5.49281450709984e-14 0.707106887766858
outer loop
vertex -693.882572036602 -345.804869946905 -5.82842755108543
vertex -694.710999257161 -350.804869946905 -6.46410191660967
vertex -693.882572036601 -350.804869946905 -5.82842755108471
endloop
endfacet
facet normal -0.499999869466292 1.35598240832332e-14 0.866025479148097
outer loop
vertex -694.710999257161 -350.804869946905 -6.46410191660967
vertex -693.882572036602 -345.804869946905 -5.82842755108543
vertex -694.710999257162 -345.804869946905 -6.46410191661038
endloop
endfacet
facet normal 0.965925826289028 2.50366696083812e-13 0.258819045102673
outer loop
vertex -697.91428151459 -437.804869946906 -3.32241864906053
vertex -697.789832561263 -438.804869946906 -3.6228650000048
vertex -697.789832561263 -437.804869946906 -3.62286500000495
endloop
endfacet
facet normal 0.866025403784373 2.62832010121073e-13 0.500000000000114
outer loop
vertex -697.789832561263 -438.804869946906 -3.6228650000048
vertex -697.91428151459 -437.804869946906 -3.32241864906053
vertex -697.91428151459 -438.804869946906 -3.32241864906039
endloop
endfacet
facet normal -2.20839305458944e-13 1.0 -1.43159122879028e-13
outer loop
vertex -692.660998735046 -253.904869946905 -9.25000000003044
vertex -690.460998735047 -253.904869946904 -3.00000000003009
vertex -690.460998735046 -253.904869946905 -9.25000000003009
endloop
endfacet
facet normal -2.20839305458944e-13 1.0 -1.43159122879028e-13
outer loop
vertex -690.460998735047 -253.904869946904 -3.00000000003009
vertex -692.660998735046 -253.904869946905 -9.25000000003044
vertex -692.660998735047 -253.904869946904 -3.00000000003044
endloop
endfacet
facet normal 0.991444881047667 2.37635992728961e-13 0.130526042782192
outer loop
vertex -700.710998735027 -345.804869946906 -2.99999939710861
vertex -700.574702196227 -350.804869946906 -4.03527559806159
vertex -700.574702196228 -345.804869946906 -4.0352755980623
endloop
endfacet
facet normal 0.965925865300165 2.5036668385624e-13 0.258818899511083
outer loop
vertex -700.574702196227 -350.804869946906 -4.03527559806159
vertex -700.710998735027 -345.804869946906 -2.99999939710861
vertex -700.710998735026 -350.804869946906 -2.99999939710789
endloop
endfacet
facet normal -0.25881889951109 8.11237136348606e-14 0.965925865300163
outer loop
vertex -695.675723136983 -345.804869946906 -6.86370346121864
vertex -696.710999337935 -350.804869946906 -7.00000000001722
vertex -695.675723136982 -350.804869946906 -6.86370346121792
endloop
endfacet
facet normal 1.50727340558414e-07 1.43159156165548e-13 0.999999999999989
outer loop
vertex -696.710999337935 -350.804869946906 -7.00000000001722
vertex -695.675723136983 -345.804869946906 -6.86370346121864
vertex -696.710999337936 -345.804869946906 -7.00000000001795
endloop
endfacet
facet normal -1.0 -2.20839305458967e-13 -1.62152943567184e-13
outer loop
vertex -690.460998735006 -437.804869946905 -9.25000000000284
vertex -690.460998735007 -436.304869946904 -3.000000000004
vertex -690.460998735006 -436.304869946905 -9.25000000000399
endloop
endfacet
facet normal -1.0 -2.20839305458967e-13 -1.62152943567184e-13
outer loop
vertex -690.460998735007 -436.304869946904 -3.000000000004
vertex -690.460998735006 -437.804869946905 -9.25000000000284
vertex -690.460998735007 -437.804869946904 -3.00000000000376
endloop
endfacet
facet normal 1.0 2.20839305458967e-13 1.62152943567184e-13
outer loop
vertex -702.960998735049 -240.904869946908 -9.25000000003398
vertex -702.96099873505 -242.404869946907 -3.00000000003378
vertex -702.960998735049 -242.404869946908 -9.25000000003378
endloop
endfacet
facet normal 1.0 2.20839305458967e-13 1.62152943567184e-13
outer loop
vertex -702.96099873505 -242.404869946907 -3.00000000003378
vertex -702.960998735049 -240.904869946908 -9.25000000003398
vertex -702.96099873505 -240.904869946907 -3.00000000003399
endloop
endfacet
facet normal 2.20839305458944e-13 -1.0 1.43159122879028e-13
outer loop
vertex -692.66099873505 -240.904869946904 -3.00000000003232
vertex -690.460998735049 -240.904869946905 -9.25000000003195
vertex -690.46099873505 -240.904869946904 -3.00000000003196
endloop
endfacet
facet normal 2.20839305458944e-13 -1.0 1.43159122879028e-13
outer loop
vertex -690.460998735049 -240.904869946905 -9.25000000003195
vertex -692.66099873505 -240.904869946904 -3.00000000003232
vertex -692.660998735049 -240.904869946905 -9.2500000000323
endloop
endfacet
facet normal -1.0 -2.20839305458967e-13 -1.62152943567184e-13
outer loop
vertex -692.660998735049 -240.904869946905 -9.2500000000323
vertex -692.660998735051 -237.904869946904 -3.00000000003275
vertex -692.66099873505 -237.904869946905 -9.25000000003276
endloop
endfacet
facet normal -1.0 -2.20839305458967e-13 -1.62152943567184e-13
outer loop
vertex -692.660998735051 -237.904869946904 -3.00000000003275
vertex -692.660998735049 -240.904869946905 -9.2500000000323
vertex -692.66099873505 -240.904869946904 -3.00000000003232
endloop
endfacet
facet normal -2.20839305458944e-13 1.0 -1.43159122879028e-13
outer loop
vertex -692.660998735007 -434.304869946905 -9.25000000000463
vertex -690.460998735008 -434.304869946904 -3.00000000000429
vertex -690.460998735007 -434.304869946905 -9.25000000000428
endloop
endfacet
facet normal -2.20839305458944e-13 1.0 -1.43159122879028e-13
outer loop
vertex -690.460998735008 -434.304869946904 -3.00000000000429
vertex -692.660998735007 -434.304869946905 -9.25000000000463
vertex -692.660998735008 -434.304869946904 -3.00000000000464
endloop
endfacet
facet normal -1.0 -2.20839305458967e-13 -1.62152943567184e-13
outer loop
vertex -692.660998735047 -255.904869946904 -3.00000000003017
vertex -692.660998735046 -253.904869946905 -9.25000000003044
vertex -692.660998735046 -255.904869946905 -9.25000000003018
endloop
endfacet
facet normal -1.0 -2.20839305458967e-13 -1.62152943567184e-13
outer loop
vertex -692.660998735046 -253.904869946905 -9.25000000003044
vertex -692.660998735047 -255.904869946904 -3.00000000003017
vertex -692.660998735047 -253.904869946904 -3.00000000003044
endloop
endfacet
facet normal 2.20839305458944e-13 -1.0 1.43159122879028e-13
outer loop
vertex -692.710998735026 -350.804869946904 -3.0000006029266
vertex -690.460998735025 -350.804869946905 -9.25000000001623
vertex -690.460998735026 -350.804869946904 -3.00000000001624
endloop
endfacet
facet normal 2.20839305458944e-13 -1.0 1.43159122879028e-13
outer loop
vertex -690.460998735025 -350.804869946905 -9.25000000001623
vertex -692.710998735026 -350.804869946904 -3.0000006029266
vertex -692.847295585914 -350.804869946905 -4.03527676279303
endloop
endfacet
facet normal 2.20839305458944e-13 -1.0 1.43159122879028e-13
outer loop
vertex -690.460998735025 -350.804869946905 -9.25000000001623
vertex -692.847295585914 -350.804869946905 -4.03527676279303
vertex -693.246897421343 -350.804869946905 -5.00000052215205
endloop
endfacet
facet normal 2.20839305458944e-13 -1.0 1.43159122879028e-13
outer loop
vertex -690.460998735025 -350.804869946905 -9.25000000001623
vertex -693.246897421343 -350.804869946905 -5.00000052215205
vertex -693.882572036601 -350.804869946905 -5.82842755108471
endloop
endfacet
facet normal 2.20839305458944e-13 -1.0 1.43159122879028e-13
outer loop
vertex -690.460998735025 -350.804869946905 -9.25000000001623
vertex -693.882572036601 -350.804869946905 -5.82842755108471
vertex -694.710999257161 -350.804869946905 -6.46410191660967
endloop
endfacet
facet normal 2.20839305458944e-13 -1.0 1.43159122879028e-13
outer loop
vertex -690.460998735025 -350.804869946905 -9.25000000001623
vertex -694.710999257161 -350.804869946905 -6.46410191660967
vertex -695.675723136982 -350.804869946906 -6.86370346121792
endloop
endfacet
facet normal 2.20839305458944e-13 -1.0 1.43159122879028e-13
outer loop
vertex -690.460998735025 -350.804869946905 -9.25000000001623
vertex -695.675723136982 -350.804869946906 -6.86370346121792
vertex -702.960998735025 -350.804869946908 -9.25000000001825
endloop
endfacet
facet normal 2.20839305458944e-13 -1.0 1.43159122879028e-13
outer loop
vertex -702.960998735025 -350.804869946908 -9.25000000001825
vertex -695.675723136982 -350.804869946906 -6.86370346121792
vertex -696.710999337935 -350.804869946906 -7.00000000001722
endloop
endfacet
facet normal 2.20839305458944e-13 -1.0 1.43159122879028e-13
outer loop
vertex -702.960998735025 -350.804869946908 -9.25000000001825
vertex -696.710999337935 -350.804869946906 -7.00000000001722
vertex -697.746275497802 -350.804869946906 -6.86370314912908
endloop
endfacet
facet normal 2.20839305458944e-13 -1.0 1.43159122879028e-13
outer loop
vertex -702.960998735025 -350.804869946908 -9.25000000001825
vertex -697.746275497802 -350.804869946906 -6.86370314912908
vertex -698.710999257161 -350.804869946906 -6.46410131370031
endloop
endfacet
facet normal 2.20839305458944e-13 -1.0 1.43159122879028e-13
outer loop
vertex -702.960998735025 -350.804869946908 -9.25000000001825
vertex -698.710999257161 -350.804869946906 -6.46410131370031
vertex -699.539426286093 -350.804869946906 -5.82842669844212
endloop
endfacet
facet normal 2.20839305458944e-13 -1.0 1.43159122879028e-13
outer loop
vertex -702.960998735025 -350.804869946908 -9.25000000001825
vertex -699.539426286093 -350.804869946906 -5.82842669844212
vertex -700.175100651618 -350.804869946906 -4.9999994778824
endloop
endfacet
facet normal 2.20839305458944e-13 -1.0 1.43159122879028e-13
outer loop
vertex -702.960998735025 -350.804869946908 -9.25000000001825
vertex -700.175100651618 -350.804869946906 -4.9999994778824
vertex -700.574702196227 -350.804869946906 -4.03527559806159
endloop
endfacet
facet normal 2.20839305458944e-13 -1.0 1.43159122879028e-13
outer loop
vertex -702.960998735025 -350.804869946908 -9.25000000001825
vertex -700.574702196227 -350.804869946906 -4.03527559806159
vertex -700.710998735026 -350.804869946906 -2.99999939710789
endloop
endfacet
facet normal 2.20839305458944e-13 -1.0 1.43159122879028e-13
outer loop
vertex -702.960998735025 -350.804869946908 -9.25000000001825
vertex -700.710998735026 -350.804869946906 -2.99999939710789
vertex -702.960998735026 -350.804869946907 -3.00000000001824
endloop
endfacet
facet normal -0.258819045102698 8.112367589771e-14 0.965925826289021
outer loop
vertex -696.388580085951 -437.804869946905 -4.20328277958781
vertex -696.710998735006 -438.804869946905 -4.24573000000463
vertex -696.388580085951 -438.804869946905 -4.20328277958765
endloop
endfacet
facet normal -1.4775258997585e-13 1.43159122878996e-13 1.0
outer loop
vertex -696.710998735006 -438.804869946905 -4.24573000000463
vertex -696.388580085951 -437.804869946905 -4.20328277958781
vertex -696.710998735007 -437.804869946905 -4.24573000000477
endloop
endfacet
facet normal 1.0 2.20839305458967e-13 1.62152943567184e-13
outer loop
vertex -700.760998735007 -430.804869946907 -9.25000000000506
vertex -700.760998735008 -432.804869946906 -3.00000000000615
vertex -700.760998735007 -432.804869946907 -9.25000000000477
endloop
endfacet
facet normal 1.0 2.20839305458967e-13 1.62152943567184e-13
outer loop
vertex -700.760998735008 -432.804869946906 -3.00000000000615
vertex -700.760998735007 -430.804869946907 -9.25000000000506
vertex -700.760998735008 -430.804869946906 -3.00000000000644
endloop
endfacet
facet normal 1.0 2.20839305458967e-13 1.62152943567184e-13
outer loop
vertex -688.010998735051 -237.904869946903 -3.00000000003197
vertex -688.010998735005 -438.804869946904 -10.7000003665722
vertex -688.01099873505 -237.904869946904 -10.700000366601
endloop
endfacet
facet normal 1.0 2.20839305458967e-13 1.62152943567184e-13
outer loop
vertex -688.010998735005 -438.804869946904 -10.7000003665722
vertex -688.010998735051 -237.904869946903 -3.00000000003197
vertex -688.010998735007 -438.804869946903 -3.00000000000322
endloop
endfacet
facet normal -1.0 -2.20839305458967e-13 -1.62152943567184e-13
outer loop
vertex -705.410998735005 -438.804869946908 -10.6999988108955
vertex -705.410998735051 -237.904869946907 -3.00000000003481
vertex -705.41099873505 -237.904869946908 -10.6999988109243
endloop
endfacet
facet normal -1.0 -2.20839305458967e-13 -1.62152943567184e-13
outer loop
vertex -705.410998735051 -237.904869946907 -3.00000000003481
vertex -705.410998735005 -438.804869946908 -10.6999988108955
vertex -705.410998735007 -438.804869946907 -3.00000000000605
endloop
endfacet
facet normal 1.0 2.20839305458967e-13 1.62152943567184e-13
outer loop
vertex -700.76099873505 -242.404869946906 -3.00000000003343
vertex -700.760998735047 -252.404869946907 -9.250000000032
vertex -700.760998735049 -242.404869946907 -9.25000000003344
endloop
endfacet
facet normal 1.0 2.20839305458967e-13 1.62152943567184e-13
outer loop
vertex -700.760998735047 -252.404869946907 -9.250000000032
vertex -700.76099873505 -242.404869946906 -3.00000000003343
vertex -700.760998735048 -252.404869946906 -3.000000000032
endloop
endfacet
facet normal -2.20837338484219e-13 1.0 -1.44102019857899e-13
outer loop
vertex -688.01099873505 -237.904869946904 -10.700000366601
vertex -692.66099873505 -237.904869946905 -9.25000000003276
vertex -688.010998735051 -237.904869946903 -3.00000000003197
endloop
endfacet
facet normal -2.20837338484219e-13 1.0 -1.44102019857899e-13
outer loop
vertex -692.66099873505 -237.904869946905 -9.25000000003276
vertex -688.01099873505 -237.904869946904 -10.700000366601
vertex -705.41099873505 -237.904869946908 -10.6999988109243
endloop
endfacet
facet normal -2.20837338484219e-13 1.0 -1.44102019857899e-13
outer loop
vertex -692.66099873505 -237.904869946905 -9.25000000003276
vertex -705.41099873505 -237.904869946908 -10.6999988109243
vertex -700.76099873505 -237.904869946907 -9.25000000003408
endloop
endfacet
facet normal -2.20837338484219e-13 1.0 -1.44102019857899e-13
outer loop
vertex -700.76099873505 -237.904869946907 -9.25000000003408
vertex -705.410998735051 -237.904869946907 -3.00000000003481
vertex -700.760998735051 -237.904869946906 -3.00000000003406
endloop
endfacet
facet normal -2.20837338484219e-13 1.0 -1.44102019857899e-13
outer loop
vertex -705.410998735051 -237.904869946907 -3.00000000003481
vertex -700.76099873505 -237.904869946907 -9.25000000003408
vertex -705.41099873505 -237.904869946908 -10.6999988109243
endloop
endfacet
facet normal -2.20837338484219e-13 1.0 -1.44102019857899e-13
outer loop
vertex -692.660998735051 -237.904869946904 -3.00000000003275
vertex -688.010998735051 -237.904869946903 -3.00000000003197
vertex -692.66099873505 -237.904869946905 -9.25000000003276
endloop
endfacet
facet normal -2.20839305458944e-13 1.0 -1.43159122879028e-13
outer loop
vertex -702.960998735049 -242.404869946908 -9.25000000003378
vertex -700.76099873505 -242.404869946906 -3.00000000003343
vertex -700.760998735049 -242.404869946907 -9.25000000003344
endloop
endfacet
facet normal -2.20839305458944e-13 1.0 -1.43159122879028e-13
outer loop
vertex -700.76099873505 -242.404869946906 -3.00000000003343
vertex -702.960998735049 -242.404869946908 -9.25000000003378
vertex -702.96099873505 -242.404869946907 -3.00000000003378
endloop
endfacet
facet normal 2.20839305458944e-13 -1.0 1.43159122879028e-13
outer loop
vertex -692.660998735048 -252.404869946904 -3.00000000003067
vertex -690.460998735047 -252.404869946905 -9.25000000003033
vertex -690.460998735048 -252.404869946904 -3.00000000003032
endloop
endfacet
facet normal 2.20839305458944e-13 -1.0 1.43159122879028e-13
outer loop
vertex -690.460998735047 -252.404869946905 -9.25000000003033
vertex -692.660998735048 -252.404869946904 -3.00000000003067
vertex -692.660998735047 -252.404869946905 -9.25000000003066
endloop
endfacet
facet normal -2.20839305458944e-13 1.0 -1.43159122879028e-13
outer loop
vertex -690.460998735049 -242.404869946905 -9.25000000003176
vertex -692.66099873505 -242.404869946904 -3.00000000003211
vertex -690.46099873505 -242.404869946904 -3.00000000003176
endloop
endfacet
facet normal -2.20839305458944e-13 1.0 -1.43159122879028e-13
outer loop
vertex -692.66099873505 -242.404869946904 -3.00000000003211
vertex -690.460998735049 -242.404869946905 -9.25000000003176
vertex -692.660998735049 -242.404869946905 -9.25000000003211
endloop
endfacet
facet normal -1.0 -2.20839305458967e-13 -1.62152943567184e-13
outer loop
vertex -692.660998735047 -252.404869946905 -9.25000000003066
vertex -692.66099873505 -242.404869946904 -3.00000000003211
vertex -692.660998735049 -242.404869946905 -9.25000000003211
endloop
endfacet
facet normal -1.0 -2.20839305458967e-13 -1.62152943567184e-13
outer loop
vertex -692.66099873505 -242.404869946904 -3.00000000003211
vertex -692.660998735047 -252.404869946905 -9.25000000003066
vertex -692.660998735048 -252.404869946904 -3.00000000003067
endloop
endfacet
facet normal -2.20839305458944e-13 1.0 -1.43159122879028e-13
outer loop
vertex -700.760998735046 -253.904869946907 -9.25000000003176
vertex -702.960998735047 -253.904869946907 -3.00000000003212
vertex -700.760998735047 -253.904869946906 -3.00000000003176
endloop
endfacet
facet normal -2.20839305458944e-13 1.0 -1.43159122879028e-13
outer loop
vertex -702.960998735047 -253.904869946907 -3.00000000003212
vertex -700.760998735046 -253.904869946907 -9.25000000003176
vertex -702.960998735046 -253.904869946907 -9.25000000003212
endloop
endfacet
facet normal 1.0 2.20839305458967e-13 1.62152943567184e-13
outer loop
vertex -700.760998735051 -237.904869946906 -3.00000000003406
vertex -700.760998735049 -240.904869946907 -9.25000000003362
vertex -700.76099873505 -237.904869946907 -9.25000000003408
endloop
endfacet
facet normal 1.0 2.20839305458967e-13 1.62152943567184e-13
outer loop
vertex -700.760998735049 -240.904869946907 -9.25000000003362
vertex -700.760998735051 -237.904869946906 -3.00000000003406
vertex -700.76099873505 -240.904869946906 -3.00000000003363
endloop
endfacet
facet normal 1.0 2.20839305458967e-13 1.62152943567184e-13
outer loop
vertex -700.760998735046 -253.904869946907 -9.25000000003176
vertex -700.760998735047 -255.904869946906 -3.00000000003149
vertex -700.760998735046 -255.904869946907 -9.2500000000315
endloop
endfacet
facet normal 1.0 2.20839305458967e-13 1.62152943567184e-13
outer loop
vertex -700.760998735047 -255.904869946906 -3.00000000003149
vertex -700.760998735046 -253.904869946907 -9.25000000003176
vertex -700.760998735047 -253.904869946906 -3.00000000003176
endloop
endfacet
facet normal -2.20839305458944e-13 1.0 -1.43159122879028e-13
outer loop
vertex -700.760998735007 -434.304869946907 -9.25000000000594
vertex -702.960998735007 -434.304869946907 -3.00000000000631
vertex -700.760998735007 -434.304869946906 -3.00000000000595
endloop
endfacet
facet normal -2.20839305458944e-13 1.0 -1.43159122879028e-13
outer loop
vertex -702.960998735007 -434.304869946907 -3.00000000000631
vertex -700.760998735007 -434.304869946907 -9.25000000000594
vertex -702.960998735007 -434.304869946908 -9.2500000000063
endloop
endfacet
facet normal 1.0 2.20839305458967e-13 1.62152943567184e-13
outer loop
vertex -702.960998735007 -432.804869946908 -9.25000000000513
vertex -702.960998735007 -434.304869946907 -3.00000000000631
vertex -702.960998735007 -434.304869946908 -9.2500000000063
endloop
endfacet
facet normal 1.0 2.20839305458967e-13 1.62152943567184e-13
outer loop
vertex -702.960998735007 -434.304869946907 -3.00000000000631
vertex -702.960998735007 -432.804869946908 -9.25000000000513
vertex -702.960998735008 -432.804869946907 -3.0000000000065
endloop
endfacet
facet normal 2.20839305458944e-13 -1.0 1.43159122879028e-13
outer loop
vertex -702.960998735048 -252.404869946907 -3.00000000003233
vertex -700.760998735047 -252.404869946907 -9.250000000032
vertex -700.760998735048 -252.404869946906 -3.000000000032
endloop
endfacet
facet normal 2.20839305458944e-13 -1.0 1.43159122879028e-13
outer loop
vertex -700.760998735047 -252.404869946907 -9.250000000032
vertex -702.960998735048 -252.404869946907 -3.00000000003233
vertex -702.960998735047 -252.404869946907 -9.25000000003235
endloop
endfacet
endsolid Microscope-Sketchup
