solid Microscope-Sketchup
facet normal 2.20839305458944e-13 -1.0 1.43159122879028e-13
outer loop
vertex -730.36099873505 -240.90486994691 -3.00000000003683
vertex -728.160998735049 -240.904869946911 -9.25000000003646
vertex -728.16099873505 -240.90486994691 -3.00000000003647
endloop
endfacet
facet normal 2.20839305458944e-13 -1.0 1.43159122879028e-13
outer loop
vertex -728.160998735049 -240.904869946911 -9.25000000003646
vertex -730.36099873505 -240.90486994691 -3.00000000003683
vertex -730.36099873505 -240.904869946911 -9.25000000003681
endloop
endfacet
facet normal -1.60792034676801e-08 2.49052594421776e-11 1.0
outer loop
vertex -715.410998735007 -438.804869946907 -3.00000000000605
vertex -717.860998735006 -437.804869946908 -3.00000000000659
vertex -722.865268735007 -438.804869946909 -3.00000000000726
endloop
endfacet
facet normal -1.60792034676801e-08 2.49052594421776e-11 1.0
outer loop
vertex -717.860998735006 -437.804869946908 -3.00000000000659
vertex -715.410998735007 -438.804869946907 -3.00000000000605
vertex -715.410998735051 -237.904869946907 -3.0000000000348
endloop
endfacet
facet normal -1.60792034676801e-08 2.49052594421776e-11 1.0
outer loop
vertex -717.860998735006 -437.804869946908 -3.00000000000659
vertex -715.410998735051 -237.904869946907 -3.0000000000348
vertex -717.860998735007 -436.304869946908 -3.00000000000684
endloop
endfacet
facet normal -1.60792034676801e-08 2.49052594421776e-11 1.0
outer loop
vertex -717.860998735007 -436.304869946908 -3.00000000000684
vertex -715.410998735051 -237.904869946907 -3.0000000000348
vertex -717.860998735008 -434.304869946908 -3.00000000000712
endloop
endfacet
facet normal -1.60792034676801e-08 2.49052594421776e-11 1.0
outer loop
vertex -717.860998735007 -436.304869946908 -3.00000000000684
vertex -717.860998735008 -434.304869946908 -3.00000000000712
vertex -720.060998735007 -436.304869946908 -3.00000000000718
endloop
endfacet
facet normal -1.60792034676801e-08 2.49052594421776e-11 1.0
outer loop
vertex -717.860998735008 -434.304869946908 -3.00000000000712
vertex -715.410998735051 -237.904869946907 -3.0000000000348
vertex -717.860998735008 -432.804869946908 -3.00000000000731
endloop
endfacet
facet normal -1.60792034676801e-08 2.49052594421776e-11 1.0
outer loop
vertex -717.860998735008 -432.804869946908 -3.00000000000731
vertex -715.410998735051 -237.904869946907 -3.0000000000348
vertex -717.860998735008 -430.804869946908 -3.0000000000076
endloop
endfacet
facet normal -1.60792034676801e-08 2.49052594421776e-11 1.0
outer loop
vertex -717.860998735008 -432.804869946908 -3.00000000000731
vertex -717.860998735008 -430.804869946908 -3.0000000000076
vertex -720.060998735008 -432.804869946908 -3.00000000000767
endloop
endfacet
facet normal -1.60792034676801e-08 2.49052594421776e-11 1.0
outer loop
vertex -717.860998735008 -430.804869946908 -3.0000000000076
vertex -715.410998735051 -237.904869946907 -3.0000000000348
vertex -717.860998735026 -350.804869946908 -3.00000000001908
endloop
endfacet
facet normal -1.60792034676801e-08 2.49052594421776e-11 1.0
outer loop
vertex -717.860998735026 -350.804869946908 -3.00000000001908
vertex -715.410998735051 -237.904869946907 -3.0000000000348
vertex -717.860998735027 -345.804869946908 -3.00000000001978
endloop
endfacet
facet normal -1.60792034676801e-08 2.49052594421776e-11 1.0
outer loop
vertex -717.860998735027 -345.804869946908 -3.00000000001978
vertex -715.410998735051 -237.904869946907 -3.0000000000348
vertex -717.86099873504 -285.904869946908 -3.00000000002835
endloop
endfacet
facet normal -1.60792034676801e-08 2.49052594421776e-11 1.0
outer loop
vertex -717.86099873504 -285.904869946908 -3.00000000002835
vertex -715.410998735051 -237.904869946907 -3.0000000000348
vertex -717.860998735041 -283.904869946908 -3.00000000002863
endloop
endfacet
facet normal -1.60792034676801e-08 2.49052594421776e-11 1.0
outer loop
vertex -717.86099873504 -285.904869946908 -3.00000000002835
vertex -717.860998735041 -283.904869946908 -3.00000000002863
vertex -720.06099873504 -285.904869946908 -3.00000000002871
endloop
endfacet
facet normal -1.60792034676801e-08 2.49052594421776e-11 1.0
outer loop
vertex -717.860998735041 -283.904869946908 -3.00000000002863
vertex -715.410998735051 -237.904869946907 -3.0000000000348
vertex -717.860998735041 -282.404869946908 -3.00000000002886
endloop
endfacet
facet normal -1.60792034676801e-08 2.49052594421776e-11 1.0
outer loop
vertex -717.860998735041 -282.404869946908 -3.00000000002886
vertex -715.410998735051 -237.904869946907 -3.0000000000348
vertex -720.060998735041 -282.404869946908 -3.00000000002921
endloop
endfacet
facet normal -1.60792034676801e-08 2.49052594421776e-11 1.0
outer loop
vertex -720.060998735041 -282.404869946908 -3.00000000002921
vertex -715.410998735051 -237.904869946907 -3.0000000000348
vertex -717.86099873505 -242.404869946908 -3.00000000003459
endloop
endfacet
facet normal -1.60792034676801e-08 2.49052594421776e-11 1.0
outer loop
vertex -717.86099873505 -242.404869946908 -3.00000000003459
vertex -715.410998735051 -237.904869946907 -3.0000000000348
vertex -717.86099873505 -240.904869946908 -3.00000000003479
endloop
endfacet
facet normal -1.60792034676801e-08 2.49052594421776e-11 1.0
outer loop
vertex -717.86099873505 -240.904869946908 -3.00000000003479
vertex -720.060998735051 -237.904869946908 -3.00000000003558
vertex -720.06099873505 -240.904869946908 -3.00000000003515
endloop
endfacet
facet normal -1.60792034676801e-08 2.49052594421776e-11 1.0
outer loop
vertex -720.060998735051 -237.904869946908 -3.00000000003558
vertex -717.86099873505 -240.904869946908 -3.00000000003479
vertex -715.410998735051 -237.904869946907 -3.0000000000348
endloop
endfacet
facet normal -1.60792034676801e-08 2.49052594421776e-11 1.0
outer loop
vertex -720.06099873505 -242.404869946908 -3.00000000003495
vertex -720.060998735041 -282.404869946908 -3.00000000002921
vertex -717.86099873505 -242.404869946908 -3.00000000003459
endloop
endfacet
facet normal -1.60792034676801e-08 2.49052594421776e-11 1.0
outer loop
vertex -720.060998735041 -283.904869946908 -3.00000000002898
vertex -720.06099873504 -285.904869946908 -3.00000000002871
vertex -717.860998735041 -283.904869946908 -3.00000000002863
endloop
endfacet
facet normal -1.60792034676801e-08 2.49052594421776e-11 1.0
outer loop
vertex -717.860998735026 -350.804869946908 -3.00000000001908
vertex -720.110998735027 -345.804869946908 -3.00000060293014
vertex -720.110998735026 -350.804869946908 -3.00000060292943
endloop
endfacet
facet normal -1.60792034676801e-08 2.49052594421776e-11 1.0
outer loop
vertex -720.110998735027 -345.804869946908 -3.00000060293014
vertex -717.860998735026 -350.804869946908 -3.00000000001908
vertex -717.860998735027 -345.804869946908 -3.00000000001978
endloop
endfacet
facet normal -1.60792034676801e-08 2.49052594421776e-11 1.0
outer loop
vertex -720.060998735008 -430.804869946908 -3.00000000000795
vertex -720.060998735008 -432.804869946908 -3.00000000000767
vertex -717.860998735008 -430.804869946908 -3.0000000000076
endloop
endfacet
facet normal -1.60792034676801e-08 2.49052594421776e-11 1.0
outer loop
vertex -720.060998735008 -434.304869946908 -3.00000000000748
vertex -720.060998735007 -436.304869946908 -3.00000000000718
vertex -717.860998735008 -434.304869946908 -3.00000000000712
endloop
endfacet
facet normal -1.60792034676801e-08 2.49052594421776e-11 1.0
outer loop
vertex -722.865268735007 -437.804869946909 -3.00000000000741
vertex -722.865268735007 -438.804869946909 -3.00000000000726
vertex -717.860998735006 -437.804869946908 -3.00000000000659
endloop
endfacet
facet normal -7.62836914582633e-08 -2.58132955379094e-09 -0.999999999999997
outer loop
vertex -732.81099873505 -237.904869946912 -10.6999988109272
vertex -715.410998735005 -438.804869946908 -10.7000003665751
vertex -732.810998735005 -438.804869946912 -10.6999988108984
endloop
endfacet
facet normal -7.62836914582633e-08 -2.58132955379094e-09 -0.999999999999997
outer loop
vertex -715.410998735005 -438.804869946908 -10.7000003665751
vertex -732.81099873505 -237.904869946912 -10.6999988109272
vertex -715.41099873505 -237.904869946908 -10.7000003666038
endloop
endfacet
facet normal 0.258819045102347 1.954385122177e-13 0.965925826289115
outer loop
vertex -724.433417384062 -437.804869946909 -4.20328277959075
vertex -724.733863735006 -438.804869946909 -4.07883382626395
vertex -724.433417384062 -438.804869946909 -4.20328277959059
endloop
endfacet
facet normal 0.499999999999876 2.34399089926192e-13 0.86602540378451
outer loop
vertex -724.733863735006 -438.804869946909 -4.07883382626395
vertex -724.433417384062 -437.804869946909 -4.20328277959075
vertex -724.733863735006 -437.804869946909 -4.0788338262641
endloop
endfacet
facet normal -1.0 -2.20839305458967e-13 -1.62152943567184e-13
outer loop
vertex -717.860998735007 -430.804869946909 -9.2500000000076
vertex -717.860998735026 -350.804869946908 -3.00000000001908
vertex -717.860998735025 -350.804869946909 -9.25000000001907
endloop
endfacet
facet normal -1.0 -2.20839305458967e-13 -1.62152943567184e-13
outer loop
vertex -717.860998735026 -350.804869946908 -3.00000000001908
vertex -717.860998735007 -430.804869946909 -9.2500000000076
vertex -717.860998735008 -430.804869946908 -3.0000000000076
endloop
endfacet
facet normal -1.62131123759852e-13 1.43183668777735e-13 1.0
outer loop
vertex -717.860998735039 -285.904869946909 -9.25000000002836
vertex -720.060998735039 -285.904869946909 -9.25000000002872
vertex -717.860998735026 -345.804869946909 -9.25000000001978
endloop
endfacet
facet normal -1.62131123759852e-13 1.43183668777735e-13 1.0
outer loop
vertex -717.860998735026 -345.804869946909 -9.25000000001978
vertex -730.360998735039 -285.904869946911 -9.2500000000304
vertex -730.360998735026 -345.804869946911 -9.25000000002179
endloop
endfacet
facet normal -1.62131123759852e-13 1.43183668777735e-13 1.0
outer loop
vertex -730.360998735039 -285.904869946911 -9.2500000000304
vertex -717.860998735026 -345.804869946909 -9.25000000001978
vertex -728.160998735039 -285.904869946911 -9.25000000003004
endloop
endfacet
facet normal -1.62131123759852e-13 1.43183668777735e-13 1.0
outer loop
vertex -728.160998735039 -285.904869946911 -9.25000000003004
vertex -717.860998735026 -345.804869946909 -9.25000000001978
vertex -720.060998735039 -285.904869946909 -9.25000000002872
endloop
endfacet
facet normal -1.62131123759852e-13 1.43183668777735e-13 1.0
outer loop
vertex -720.06099873504 -283.904869946909 -9.25000000002898
vertex -728.160998735039 -285.904869946911 -9.25000000003004
vertex -720.060998735039 -285.904869946909 -9.25000000002872
endloop
endfacet
facet normal -1.62131123759852e-13 1.43183668777735e-13 1.0
outer loop
vertex -728.160998735039 -285.904869946911 -9.25000000003004
vertex -720.06099873504 -283.904869946909 -9.25000000002898
vertex -728.16099873504 -283.904869946911 -9.2500000000303
endloop
endfacet
facet normal -1.62131123759852e-13 1.43183668777735e-13 1.0
outer loop
vertex -728.16099873504 -283.904869946911 -9.2500000000303
vertex -720.06099873504 -283.904869946909 -9.25000000002898
vertex -717.86099873504 -283.904869946909 -9.25000000002863
endloop
endfacet
facet normal -1.62131123759852e-13 1.43183668777735e-13 1.0
outer loop
vertex -728.16099873504 -283.904869946911 -9.2500000000303
vertex -717.86099873504 -283.904869946909 -9.25000000002863
vertex -717.86099873504 -282.404869946909 -9.25000000002887
endloop
endfacet
facet normal -1.62131123759852e-13 1.43183668777735e-13 1.0
outer loop
vertex -728.16099873504 -283.904869946911 -9.2500000000303
vertex -717.86099873504 -282.404869946909 -9.25000000002887
vertex -730.36099873504 -283.904869946911 -9.25000000003066
endloop
endfacet
facet normal -1.62131123759852e-13 1.43183668777735e-13 1.0
outer loop
vertex -730.36099873504 -283.904869946911 -9.25000000003066
vertex -717.86099873504 -282.404869946909 -9.25000000002887
vertex -720.06099873504 -282.404869946909 -9.2500000000292
endloop
endfacet
facet normal -1.62131123759852e-13 1.43183668777735e-13 1.0
outer loop
vertex -720.060998735049 -242.404869946909 -9.25000000003495
vertex -728.16099873504 -282.404869946911 -9.25000000003053
vertex -720.06099873504 -282.404869946909 -9.2500000000292
endloop
endfacet
facet normal -1.62131123759852e-13 1.43183668777735e-13 1.0
outer loop
vertex -728.16099873504 -282.404869946911 -9.25000000003053
vertex -720.060998735049 -242.404869946909 -9.25000000003495
vertex -728.160998735049 -242.404869946911 -9.25000000003627
endloop
endfacet
facet normal -1.62131123759852e-13 1.43183668777735e-13 1.0
outer loop
vertex -728.160998735049 -242.404869946911 -9.25000000003627
vertex -720.060998735049 -242.404869946909 -9.25000000003495
vertex -717.860998735049 -242.404869946909 -9.25000000003459
endloop
endfacet
facet normal -1.62131123759852e-13 1.43183668777735e-13 1.0
outer loop
vertex -728.160998735049 -242.404869946911 -9.25000000003627
vertex -717.860998735049 -242.404869946909 -9.25000000003459
vertex -717.860998735049 -240.904869946909 -9.25000000003478
endloop
endfacet
facet normal -1.62131123759852e-13 1.43183668777735e-13 1.0
outer loop
vertex -728.160998735049 -242.404869946911 -9.25000000003627
vertex -717.860998735049 -240.904869946909 -9.25000000003478
vertex -730.360998735049 -242.404869946911 -9.25000000003662
endloop
endfacet
facet normal -1.62131123759852e-13 1.43183668777735e-13 1.0
outer loop
vertex -730.360998735049 -242.404869946911 -9.25000000003662
vertex -717.860998735049 -240.904869946909 -9.25000000003478
vertex -720.060998735049 -240.904869946909 -9.25000000003514
endloop
endfacet
facet normal -1.62131123759852e-13 1.43183668777735e-13 1.0
outer loop
vertex -720.06099873505 -237.904869946909 -9.2500000000356
vertex -728.160998735049 -240.904869946911 -9.25000000003646
vertex -720.060998735049 -240.904869946909 -9.25000000003514
endloop
endfacet
facet normal -1.62131123759852e-13 1.43183668777735e-13 1.0
outer loop
vertex -728.160998735049 -240.904869946911 -9.25000000003646
vertex -720.06099873505 -237.904869946909 -9.2500000000356
vertex -728.16099873505 -237.904869946911 -9.25000000003692
endloop
endfacet
facet normal -1.62131123759852e-13 1.43183668777735e-13 1.0
outer loop
vertex -730.360998735049 -242.404869946911 -9.25000000003662
vertex -728.160998735049 -240.904869946911 -9.25000000003646
vertex -730.36099873505 -240.904869946911 -9.25000000003681
endloop
endfacet
facet normal -1.62131123759852e-13 1.43183668777735e-13 1.0
outer loop
vertex -728.160998735049 -240.904869946911 -9.25000000003646
vertex -730.360998735049 -242.404869946911 -9.25000000003662
vertex -720.060998735049 -240.904869946909 -9.25000000003514
endloop
endfacet
facet normal -1.62131123759852e-13 1.43183668777735e-13 1.0
outer loop
vertex -730.36099873504 -283.904869946911 -9.25000000003066
vertex -728.16099873504 -282.404869946911 -9.25000000003053
vertex -730.36099873504 -282.404869946911 -9.25000000003089
endloop
endfacet
facet normal -1.62131123759852e-13 1.43183668777735e-13 1.0
outer loop
vertex -728.16099873504 -282.404869946911 -9.25000000003053
vertex -730.36099873504 -283.904869946911 -9.25000000003066
vertex -720.06099873504 -282.404869946909 -9.2500000000292
endloop
endfacet
facet normal 0.866025403784365 2.62832010121073e-13 0.500000000000128
outer loop
vertex -725.189832561263 -437.804869946909 -3.62286500000779
vertex -724.991862865534 -438.80486994691 -3.88086413053512
vertex -724.991862865534 -437.80486994691 -3.88086413053527
endloop
endfacet
facet normal 0.707106781186437 2.57385757019017e-13 0.707106781186658
outer loop
vertex -724.991862865534 -438.80486994691 -3.88086413053512
vertex -725.189832561263 -437.804869946909 -3.62286500000779
vertex -725.189832561263 -438.804869946909 -3.62286500000763
endloop
endfacet
facet normal 2.20839305458944e-13 -1.0 1.43159122879028e-13
outer loop
vertex -720.06099873504 -285.904869946908 -3.00000000002871
vertex -717.860998735039 -285.904869946909 -9.25000000002836
vertex -717.86099873504 -285.904869946908 -3.00000000002835
endloop
endfacet
facet normal 2.20839305458944e-13 -1.0 1.43159122879028e-13
outer loop
vertex -717.860998735039 -285.904869946909 -9.25000000002836
vertex -720.06099873504 -285.904869946908 -3.00000000002871
vertex -720.060998735039 -285.904869946909 -9.25000000002872
endloop
endfacet
facet normal -1.60792028430194e-08 -2.46189610012581e-11 1.0
outer loop
vertex -728.160998735008 -434.30486994691 -3.00000000000879
vertex -730.360998735007 -436.30486994691 -3.00000000000886
vertex -728.160998735007 -436.30486994691 -3.0000000000085
endloop
endfacet
facet normal -1.60792028430194e-08 -2.46189610012581e-11 1.0
outer loop
vertex -728.160998735008 -430.80486994691 -3.00000000000927
vertex -730.360998735008 -430.804869946911 -3.00000000000963
vertex -728.160998735008 -432.80486994691 -3.00000000000898
endloop
endfacet
facet normal -1.60792028430194e-08 -2.46189610012581e-11 1.0
outer loop
vertex -728.110998735027 -345.80486994691 -2.99999939711144
vertex -730.360998735026 -350.80486994691 -3.00000000002108
vertex -728.110998735026 -350.80486994691 -2.99999939711073
endloop
endfacet
facet normal -1.60792028430194e-08 -2.46189610012581e-11 1.0
outer loop
vertex -728.160998735041 -283.90486994691 -3.0000000000303
vertex -730.36099873504 -285.90486994691 -3.00000000003038
vertex -728.16099873504 -285.90486994691 -3.00000000003003
endloop
endfacet
facet normal -1.60792028430194e-08 -2.46189610012581e-11 1.0
outer loop
vertex -728.16099873505 -242.40486994691 -3.00000000003626
vertex -730.360998735041 -282.40486994691 -3.00000000003087
vertex -728.160998735041 -282.40486994691 -3.00000000003053
endloop
endfacet
facet normal -1.60792028430194e-08 -2.46189610012581e-11 1.0
outer loop
vertex -728.160998735051 -237.90486994691 -3.00000000003689
vertex -730.36099873505 -240.90486994691 -3.00000000003683
vertex -728.16099873505 -240.90486994691 -3.00000000003647
endloop
endfacet
facet normal -1.60792028430194e-08 -2.46189610012581e-11 1.0
outer loop
vertex -732.810998735006 -438.804869946911 -3.00000000000889
vertex -730.360998735006 -437.80486994691 -3.00000000000862
vertex -732.810998735051 -237.904869946911 -3.00000000003765
endloop
endfacet
facet normal -1.60792028430194e-08 -2.46189610012581e-11 1.0
outer loop
vertex -730.360998735006 -437.80486994691 -3.00000000000862
vertex -732.810998735006 -438.804869946911 -3.00000000000889
vertex -725.356728735007 -438.804869946909 -3.00000000000767
endloop
endfacet
facet normal -1.60792028430194e-08 -2.46189610012581e-11 1.0
outer loop
vertex -730.360998735006 -437.80486994691 -3.00000000000862
vertex -725.356728735007 -438.804869946909 -3.00000000000767
vertex -725.356728735007 -437.804869946909 -3.00000000000781
endloop
endfacet
facet normal -1.60792028430194e-08 -2.46189610012581e-11 1.0
outer loop
vertex -732.810998735051 -237.904869946911 -3.00000000003765
vertex -730.360998735006 -437.80486994691 -3.00000000000862
vertex -730.360998735007 -436.30486994691 -3.00000000000886
endloop
endfacet
facet normal -1.60792028430194e-08 -2.46189610012581e-11 1.0
outer loop
vertex -732.810998735051 -237.904869946911 -3.00000000003765
vertex -730.360998735007 -436.30486994691 -3.00000000000886
vertex -730.360998735008 -434.30486994691 -3.00000000000915
endloop
endfacet
facet normal -1.60792028430194e-08 -2.46189610012581e-11 1.0
outer loop
vertex -730.360998735008 -434.30486994691 -3.00000000000915
vertex -730.360998735007 -436.30486994691 -3.00000000000886
vertex -728.160998735008 -434.30486994691 -3.00000000000879
endloop
endfacet
facet normal -1.60792028430194e-08 -2.46189610012581e-11 1.0
outer loop
vertex -732.810998735051 -237.904869946911 -3.00000000003765
vertex -730.360998735008 -434.30486994691 -3.00000000000915
vertex -730.360998735008 -432.80486994691 -3.00000000000934
endloop
endfacet
facet normal -1.60792028430194e-08 -2.46189610012581e-11 1.0
outer loop
vertex -732.810998735051 -237.904869946911 -3.00000000003765
vertex -730.360998735008 -432.80486994691 -3.00000000000934
vertex -730.360998735008 -430.804869946911 -3.00000000000963
endloop
endfacet
facet normal -1.60792028430194e-08 -2.46189610012581e-11 1.0
outer loop
vertex -730.360998735008 -430.804869946911 -3.00000000000963
vertex -730.360998735008 -432.80486994691 -3.00000000000934
vertex -728.160998735008 -432.80486994691 -3.00000000000898
endloop
endfacet
facet normal -1.60792028430194e-08 -2.46189610012581e-11 1.0
outer loop
vertex -732.810998735051 -237.904869946911 -3.00000000003765
vertex -730.360998735008 -430.804869946911 -3.00000000000963
vertex -730.360998735026 -350.80486994691 -3.00000000002108
endloop
endfacet
facet normal -1.60792028430194e-08 -2.46189610012581e-11 1.0
outer loop
vertex -732.810998735051 -237.904869946911 -3.00000000003765
vertex -730.360998735026 -350.80486994691 -3.00000000002108
vertex -730.360998735027 -345.80486994691 -3.00000000002179
endloop
endfacet
facet normal -1.60792028430194e-08 -2.46189610012581e-11 1.0
outer loop
vertex -730.360998735027 -345.80486994691 -3.00000000002179
vertex -730.360998735026 -350.80486994691 -3.00000000002108
vertex -728.110998735027 -345.80486994691 -2.99999939711144
endloop
endfacet
facet normal -1.60792028430194e-08 -2.46189610012581e-11 1.0
outer loop
vertex -732.810998735051 -237.904869946911 -3.00000000003765
vertex -730.360998735027 -345.80486994691 -3.00000000002179
vertex -730.36099873504 -285.90486994691 -3.00000000003038
endloop
endfacet
facet normal -1.60792028430194e-08 -2.46189610012581e-11 1.0
outer loop
vertex -732.810998735051 -237.904869946911 -3.00000000003765
vertex -730.36099873504 -285.90486994691 -3.00000000003038
vertex -730.360998735041 -283.90486994691 -3.00000000003066
endloop
endfacet
facet normal -1.60792028430194e-08 -2.46189610012581e-11 1.0
outer loop
vertex -730.360998735041 -283.90486994691 -3.00000000003066
vertex -730.36099873504 -285.90486994691 -3.00000000003038
vertex -728.160998735041 -283.90486994691 -3.0000000000303
endloop
endfacet
facet normal -1.60792028430194e-08 -2.46189610012581e-11 1.0
outer loop
vertex -732.810998735051 -237.904869946911 -3.00000000003765
vertex -730.360998735041 -283.90486994691 -3.00000000003066
vertex -730.360998735041 -282.40486994691 -3.00000000003087
endloop
endfacet
facet normal -1.60792028430194e-08 -2.46189610012581e-11 1.0
outer loop
vertex -732.810998735051 -237.904869946911 -3.00000000003765
vertex -730.360998735041 -282.40486994691 -3.00000000003087
vertex -730.36099873505 -242.40486994691 -3.00000000003662
endloop
endfacet
facet normal -1.60792028430194e-08 -2.46189610012581e-11 1.0
outer loop
vertex -730.36099873505 -242.40486994691 -3.00000000003662
vertex -730.360998735041 -282.40486994691 -3.00000000003087
vertex -728.16099873505 -242.40486994691 -3.00000000003626
endloop
endfacet
facet normal -1.60792028430194e-08 -2.46189610012581e-11 1.0
outer loop
vertex -732.810998735051 -237.904869946911 -3.00000000003765
vertex -730.36099873505 -242.40486994691 -3.00000000003662
vertex -730.36099873505 -240.90486994691 -3.00000000003683
endloop
endfacet
facet normal -1.60792028430194e-08 -2.46189610012581e-11 1.0
outer loop
vertex -732.810998735051 -237.904869946911 -3.00000000003765
vertex -730.36099873505 -240.90486994691 -3.00000000003683
vertex -728.160998735051 -237.90486994691 -3.00000000003689
endloop
endfacet
facet normal 0.50000013053371 2.34399107964184e-13 0.866025328420753
outer loop
vertex -726.110999257161 -350.80486994691 -6.46410131370314
vertex -726.939426286094 -345.80486994691 -5.82842669844567
vertex -726.939426286093 -350.80486994691 -5.82842669844495
endloop
endfacet
facet normal 0.707106887766858 2.57385765298202e-13 0.707106674606221
outer loop
vertex -726.939426286094 -345.80486994691 -5.82842669844567
vertex -726.110999257161 -350.80486994691 -6.46410131370314
vertex -726.110999257162 -345.80486994691 -6.46410131370386
endloop
endfacet
facet normal 2.20839305458944e-13 -1.0 1.43159122879028e-13
outer loop
vertex -730.36099873504 -285.90486994691 -3.00000000003038
vertex -728.160998735039 -285.904869946911 -9.25000000003004
vertex -728.16099873504 -285.90486994691 -3.00000000003003
endloop
endfacet
facet normal 2.20839305458944e-13 -1.0 1.43159122879028e-13
outer loop
vertex -728.160998735039 -285.904869946911 -9.25000000003004
vertex -730.36099873504 -285.90486994691 -3.00000000003038
vertex -730.360998735039 -285.904869946911 -9.2500000000304
endloop
endfacet
facet normal -1.0 -2.20839305458967e-13 -1.62152943567184e-13
outer loop
vertex -717.86099873504 -283.904869946909 -9.25000000002863
vertex -717.860998735041 -282.404869946908 -3.00000000002886
vertex -717.86099873504 -282.404869946909 -9.25000000002887
endloop
endfacet
facet normal -1.0 -2.20839305458967e-13 -1.62152943567184e-13
outer loop
vertex -717.860998735041 -282.404869946908 -3.00000000002886
vertex -717.86099873504 -283.904869946909 -9.25000000002863
vertex -717.860998735041 -283.904869946908 -3.00000000002863
endloop
endfacet
facet normal -1.0 -2.20839305458967e-13 -1.62152943567184e-13
outer loop
vertex -717.860998735026 -345.804869946909 -9.25000000001978
vertex -717.86099873504 -285.904869946908 -3.00000000002835
vertex -717.860998735039 -285.904869946909 -9.25000000002836
endloop
endfacet
facet normal -1.0 -2.20839305458967e-13 -1.62152943567184e-13
outer loop
vertex -717.86099873504 -285.904869946908 -3.00000000002835
vertex -717.860998735026 -345.804869946909 -9.25000000001978
vertex -717.860998735027 -345.804869946908 -3.00000000001978
endloop
endfacet
facet normal 1.0 2.20839305458967e-13 1.62152943567184e-13
outer loop
vertex -730.36099873504 -285.90486994691 -3.00000000003038
vertex -730.360998735026 -345.804869946911 -9.25000000002179
vertex -730.360998735039 -285.904869946911 -9.2500000000304
endloop
endfacet
facet normal 1.0 2.20839305458967e-13 1.62152943567184e-13
outer loop
vertex -730.360998735026 -345.804869946911 -9.25000000002179
vertex -730.36099873504 -285.90486994691 -3.00000000003038
vertex -730.360998735027 -345.80486994691 -3.00000000002179
endloop
endfacet
facet normal -1.0 -2.20839305458967e-13 -1.62152943567184e-13
outer loop
vertex -717.860998735008 -434.304869946908 -3.00000000000712
vertex -717.860998735007 -432.804869946909 -9.25000000000731
vertex -717.860998735007 -434.304869946909 -9.25000000000711
endloop
endfacet
facet normal -1.0 -2.20839305458967e-13 -1.62152943567184e-13
outer loop
vertex -717.860998735007 -432.804869946909 -9.25000000000731
vertex -717.860998735008 -434.304869946908 -3.00000000000712
vertex -717.860998735008 -432.804869946908 -3.00000000000731
endloop
endfacet
facet normal -1.0 -2.20839305458967e-13 -1.62152943567184e-13
outer loop
vertex -717.86099873505 -242.404869946908 -3.00000000003459
vertex -717.860998735049 -240.904869946909 -9.25000000003478
vertex -717.860998735049 -242.404869946909 -9.25000000003459
endloop
endfacet
facet normal -1.0 -2.20839305458967e-13 -1.62152943567184e-13
outer loop
vertex -717.860998735049 -240.904869946909 -9.25000000003478
vertex -717.86099873505 -242.404869946908 -3.00000000003459
vertex -717.86099873505 -240.904869946908 -3.00000000003479
endloop
endfacet
facet normal -1.17505131523904e-13 1.4556573149697e-13 1.0
outer loop
vertex -717.860998735006 -436.304869946909 -9.25000000000683
vertex -720.060998735006 -436.304869946909 -9.25000000000718
vertex -717.860998735006 -437.804869946909 -9.25000000000567
endloop
endfacet
facet normal -1.17505131523904e-13 1.4556573149697e-13 1.0
outer loop
vertex -717.860998735006 -437.804869946909 -9.25000000000567
vertex -730.360998735006 -436.304869946911 -9.25000000000885
vertex -730.360998735006 -437.804869946911 -9.2500000000077
endloop
endfacet
facet normal -1.17505131523904e-13 1.4556573149697e-13 1.0
outer loop
vertex -730.360998735006 -436.304869946911 -9.25000000000885
vertex -717.860998735006 -437.804869946909 -9.25000000000567
vertex -720.060998735006 -436.304869946909 -9.25000000000718
endloop
endfacet
facet normal -1.17505131523904e-13 1.4556573149697e-13 1.0
outer loop
vertex -730.360998735006 -436.304869946911 -9.25000000000885
vertex -720.060998735006 -436.304869946909 -9.25000000000718
vertex -728.160998735006 -436.304869946911 -9.25000000000849
endloop
endfacet
facet normal -1.17505131523904e-13 1.4556573149697e-13 1.0
outer loop
vertex -720.060998735007 -434.304869946909 -9.25000000000747
vertex -728.160998735006 -436.304869946911 -9.25000000000849
vertex -720.060998735006 -436.304869946909 -9.25000000000718
endloop
endfacet
facet normal -1.17505131523904e-13 1.4556573149697e-13 1.0
outer loop
vertex -728.160998735006 -436.304869946911 -9.25000000000849
vertex -720.060998735007 -434.304869946909 -9.25000000000747
vertex -728.160998735007 -434.304869946911 -9.25000000000878
endloop
endfacet
facet normal -1.17505131523904e-13 1.4556573149697e-13 1.0
outer loop
vertex -728.160998735007 -434.304869946911 -9.25000000000878
vertex -720.060998735007 -434.304869946909 -9.25000000000747
vertex -717.860998735007 -434.304869946909 -9.25000000000711
endloop
endfacet
facet normal -1.17505131523904e-13 1.4556573149697e-13 1.0
outer loop
vertex -728.160998735007 -434.304869946911 -9.25000000000878
vertex -717.860998735007 -434.304869946909 -9.25000000000711
vertex -717.860998735007 -432.804869946909 -9.25000000000731
endloop
endfacet
facet normal -1.17505131523904e-13 1.4556573149697e-13 1.0
outer loop
vertex -717.860998735025 -350.804869946909 -9.25000000001907
vertex -720.060998735007 -430.804869946909 -9.25000000000795
vertex -717.860998735007 -430.804869946909 -9.2500000000076
endloop
endfacet
facet normal -1.17505131523904e-13 1.4556573149697e-13 1.0
outer loop
vertex -720.060998735007 -430.804869946909 -9.25000000000795
vertex -717.860998735025 -350.804869946909 -9.25000000001907
vertex -728.160998735007 -430.804869946911 -9.25000000000789
endloop
endfacet
facet normal -1.17505131523904e-13 1.4556573149697e-13 1.0
outer loop
vertex -728.160998735007 -430.804869946911 -9.25000000000789
vertex -717.860998735025 -350.804869946909 -9.25000000001907
vertex -730.360998735007 -430.804869946911 -9.25000000000825
endloop
endfacet
facet normal -1.17505131523904e-13 1.4556573149697e-13 1.0
outer loop
vertex -730.360998735007 -430.804869946911 -9.25000000000825
vertex -717.860998735025 -350.804869946909 -9.25000000001907
vertex -730.360998735025 -350.804869946911 -9.25000000002109
endloop
endfacet
facet normal -1.17505131523904e-13 1.4556573149697e-13 1.0
outer loop
vertex -720.060998735007 -430.804869946909 -9.25000000000795
vertex -728.160998735007 -432.804869946911 -9.2500000000076
vertex -720.060998735007 -432.804869946909 -9.25000000000767
endloop
endfacet
facet normal -1.17505131523904e-13 1.4556573149697e-13 1.0
outer loop
vertex -728.160998735007 -432.804869946911 -9.2500000000076
vertex -720.060998735007 -430.804869946909 -9.25000000000795
vertex -728.160998735007 -430.804869946911 -9.25000000000789
endloop
endfacet
facet normal -1.17505131523904e-13 1.4556573149697e-13 1.0
outer loop
vertex -728.160998735007 -434.304869946911 -9.25000000000878
vertex -730.360998735007 -432.804869946911 -9.25000000000796
vertex -730.360998735007 -434.304869946911 -9.25000000000913
endloop
endfacet
facet normal -1.17505131523904e-13 1.4556573149697e-13 1.0
outer loop
vertex -730.360998735007 -432.804869946911 -9.25000000000796
vertex -728.160998735007 -434.304869946911 -9.25000000000878
vertex -717.860998735007 -432.804869946909 -9.25000000000731
endloop
endfacet
facet normal -1.17505131523904e-13 1.4556573149697e-13 1.0
outer loop
vertex -730.360998735007 -432.804869946911 -9.25000000000796
vertex -717.860998735007 -432.804869946909 -9.25000000000731
vertex -720.060998735007 -432.804869946909 -9.25000000000767
endloop
endfacet
facet normal -1.17505131523904e-13 1.4556573149697e-13 1.0
outer loop
vertex -730.360998735007 -432.804869946911 -9.25000000000796
vertex -720.060998735007 -432.804869946909 -9.25000000000767
vertex -728.160998735007 -432.804869946911 -9.2500000000076
endloop
endfacet
facet normal 1.0 2.20839305458967e-13 1.62152943567184e-13
outer loop
vertex -730.360998735007 -436.30486994691 -3.00000000000886
vertex -730.360998735006 -437.804869946911 -9.2500000000077
vertex -730.360998735006 -436.304869946911 -9.25000000000885
endloop
endfacet
facet normal 1.0 2.20839305458967e-13 1.62152943567184e-13
outer loop
vertex -730.360998735006 -437.804869946911 -9.2500000000077
vertex -730.360998735007 -436.30486994691 -3.00000000000886
vertex -730.360998735006 -437.80486994691 -3.00000000000862
endloop
endfacet
facet normal 1.0 2.20839305458967e-13 1.62152943567184e-13
outer loop
vertex -730.360998735026 -350.80486994691 -3.00000000002108
vertex -730.360998735007 -430.804869946911 -9.25000000000825
vertex -730.360998735025 -350.804869946911 -9.25000000002109
endloop
endfacet
facet normal 1.0 2.20839305458967e-13 1.62152943567184e-13
outer loop
vertex -730.360998735007 -430.804869946911 -9.25000000000825
vertex -730.360998735026 -350.80486994691 -3.00000000002108
vertex -730.360998735008 -430.804869946911 -3.00000000000963
endloop
endfacet
facet normal 0.965925865300165 2.5036668385624e-13 0.258818899511082
outer loop
vertex -727.974702196228 -345.80486994691 -4.03527559806514
vertex -727.575100651619 -350.80486994691 -4.99999947788524
vertex -727.57510065162 -345.80486994691 -4.99999947788596
endloop
endfacet
facet normal 0.866025479148095 2.62832008077238e-13 0.499999869466296
outer loop
vertex -727.575100651619 -350.80486994691 -4.99999947788524
vertex -727.974702196228 -345.80486994691 -4.03527559806514
vertex -727.974702196227 -350.80486994691 -4.03527559806442
endloop
endfacet
facet normal 2.20839305458944e-13 -1.0 1.43159122879028e-13
outer loop
vertex -720.060998735007 -436.304869946908 -3.00000000000718
vertex -717.860998735006 -436.304869946909 -9.25000000000683
vertex -717.860998735007 -436.304869946908 -3.00000000000684
endloop
endfacet
facet normal 2.20839305458944e-13 -1.0 1.43159122879028e-13
outer loop
vertex -717.860998735006 -436.304869946909 -9.25000000000683
vertex -720.060998735007 -436.304869946908 -3.00000000000718
vertex -720.060998735006 -436.304869946909 -9.25000000000718
endloop
endfacet
facet normal -2.20839305458944e-13 1.0 -1.43159122879028e-13
outer loop
vertex -728.160998735007 -430.804869946911 -9.25000000000789
vertex -730.360998735008 -430.804869946911 -3.00000000000963
vertex -728.160998735008 -430.80486994691 -3.00000000000927
endloop
endfacet
facet normal -2.20839305458944e-13 1.0 -1.43159122879028e-13
outer loop
vertex -730.360998735008 -430.804869946911 -3.00000000000963
vertex -728.160998735007 -430.804869946911 -9.25000000000789
vertex -730.360998735007 -430.804869946911 -9.25000000000825
endloop
endfacet
facet normal 2.20839305458944e-13 -1.0 1.43159122879028e-13
outer loop
vertex -730.360998735007 -436.30486994691 -3.00000000000886
vertex -728.160998735006 -436.304869946911 -9.25000000000849
vertex -728.160998735007 -436.30486994691 -3.0000000000085
endloop
endfacet
facet normal 2.20839305458944e-13 -1.0 1.43159122879028e-13
outer loop
vertex -728.160998735006 -436.304869946911 -9.25000000000849
vertex -730.360998735007 -436.30486994691 -3.00000000000886
vertex -730.360998735006 -436.304869946911 -9.25000000000885
endloop
endfacet
facet normal 0.991444861373793 2.37636009777609e-13 0.130526192220185
outer loop
vertex -725.356728735007 -437.804869946909 -3.00000000000781
vertex -725.31428151459 -438.80486994691 -3.32241864906322
vertex -725.31428151459 -437.80486994691 -3.32241864906337
endloop
endfacet
facet normal 0.965925826289032 2.50366696083811e-13 0.258819045102658
outer loop
vertex -725.31428151459 -438.80486994691 -3.32241864906322
vertex -725.356728735007 -437.804869946909 -3.00000000000781
vertex -725.356728735007 -438.804869946909 -3.00000000000767
endloop
endfacet
facet normal 0.25881919069395 1.95438538785244e-13 0.965925787277951
outer loop
vertex -725.146275497803 -345.80486994691 -6.86370314913263
vertex -726.110999257161 -350.80486994691 -6.46410131370314
vertex -725.146275497802 -350.80486994691 -6.86370314913191
endloop
endfacet
facet normal 0.50000013053371 2.34399107964184e-13 0.866025328420753
outer loop
vertex -726.110999257161 -350.80486994691 -6.46410131370314
vertex -725.146275497803 -345.80486994691 -6.86370314913263
vertex -726.110999257162 -345.80486994691 -6.46410131370386
endloop
endfacet
facet normal -0.991444841699932 -2.00263953657511e-13 0.130526341657909
outer loop
vertex -720.110998735026 -350.804869946908 -3.00000060292943
vertex -720.247295585915 -345.804869946908 -4.03527676279658
vertex -720.247295585914 -350.804869946908 -4.03527676279586
endloop
endfacet
facet normal -0.965925787277951 -1.76262051663341e-13 0.258819190693949
outer loop
vertex -720.247295585915 -345.804869946908 -4.03527676279658
vertex -720.110998735026 -350.804869946908 -3.00000060292943
vertex -720.110998735027 -345.804869946908 -3.00000060293014
endloop
endfacet
facet normal -2.20839305458944e-13 1.0 -1.43159122879028e-13
outer loop
vertex -717.860998735026 -345.804869946909 -9.25000000001978
vertex -720.110998735027 -345.804869946908 -3.00000060293014
vertex -717.860998735027 -345.804869946908 -3.00000000001978
endloop
endfacet
facet normal -2.20839305458944e-13 1.0 -1.43159122879028e-13
outer loop
vertex -720.110998735027 -345.804869946908 -3.00000060293014
vertex -717.860998735026 -345.804869946909 -9.25000000001978
vertex -720.247295585915 -345.804869946908 -4.03527676279658
endloop
endfacet
facet normal -2.20839305458944e-13 1.0 -1.43159122879028e-13
outer loop
vertex -720.247295585915 -345.804869946908 -4.03527676279658
vertex -717.860998735026 -345.804869946909 -9.25000000001978
vertex -720.646897421344 -345.804869946909 -5.0000005221556
endloop
endfacet
facet normal -2.20839305458944e-13 1.0 -1.43159122879028e-13
outer loop
vertex -720.646897421344 -345.804869946909 -5.0000005221556
vertex -717.860998735026 -345.804869946909 -9.25000000001978
vertex -721.282572036602 -345.804869946909 -5.82842755108826
endloop
endfacet
facet normal -2.20839305458944e-13 1.0 -1.43159122879028e-13
outer loop
vertex -721.282572036602 -345.804869946909 -5.82842755108826
vertex -717.860998735026 -345.804869946909 -9.25000000001978
vertex -722.110999257162 -345.804869946909 -6.46410191661321
endloop
endfacet
facet normal -2.20839305458944e-13 1.0 -1.43159122879028e-13
outer loop
vertex -722.110999257162 -345.804869946909 -6.46410191661321
vertex -717.860998735026 -345.804869946909 -9.25000000001978
vertex -723.075723136982 -345.804869946909 -6.86370346122147
endloop
endfacet
facet normal -2.20839305458944e-13 1.0 -1.43159122879028e-13
outer loop
vertex -723.075723136982 -345.804869946909 -6.86370346122147
vertex -717.860998735026 -345.804869946909 -9.25000000001978
vertex -730.360998735026 -345.804869946911 -9.25000000002179
endloop
endfacet
facet normal -2.20839305458944e-13 1.0 -1.43159122879028e-13
outer loop
vertex -723.075723136982 -345.804869946909 -6.86370346122147
vertex -730.360998735026 -345.804869946911 -9.25000000002179
vertex -724.110999337936 -345.80486994691 -7.00000000002078
endloop
endfacet
facet normal -2.20839305458944e-13 1.0 -1.43159122879028e-13
outer loop
vertex -724.110999337936 -345.80486994691 -7.00000000002078
vertex -730.360998735026 -345.804869946911 -9.25000000002179
vertex -725.146275497803 -345.80486994691 -6.86370314913263
endloop
endfacet
facet normal -2.20839305458944e-13 1.0 -1.43159122879028e-13
outer loop
vertex -725.146275497803 -345.80486994691 -6.86370314913263
vertex -730.360998735026 -345.804869946911 -9.25000000002179
vertex -726.110999257162 -345.80486994691 -6.46410131370386
endloop
endfacet
facet normal -2.20839305458944e-13 1.0 -1.43159122879028e-13
outer loop
vertex -726.110999257162 -345.80486994691 -6.46410131370386
vertex -730.360998735026 -345.804869946911 -9.25000000002179
vertex -726.939426286094 -345.80486994691 -5.82842669844567
endloop
endfacet
facet normal -2.20839305458944e-13 1.0 -1.43159122879028e-13
outer loop
vertex -726.939426286094 -345.80486994691 -5.82842669844567
vertex -730.360998735026 -345.804869946911 -9.25000000002179
vertex -727.57510065162 -345.80486994691 -4.99999947788596
endloop
endfacet
facet normal -2.20839305458944e-13 1.0 -1.43159122879028e-13
outer loop
vertex -727.57510065162 -345.80486994691 -4.99999947788596
vertex -730.360998735026 -345.804869946911 -9.25000000002179
vertex -727.974702196228 -345.80486994691 -4.03527559806514
endloop
endfacet
facet normal -2.20839305458944e-13 1.0 -1.43159122879028e-13
outer loop
vertex -727.974702196228 -345.80486994691 -4.03527559806514
vertex -730.360998735026 -345.804869946911 -9.25000000002179
vertex -728.110998735027 -345.80486994691 -2.99999939711144
endloop
endfacet
facet normal -2.20839305458944e-13 1.0 -1.43159122879028e-13
outer loop
vertex -728.110998735027 -345.80486994691 -2.99999939711144
vertex -730.360998735026 -345.804869946911 -9.25000000002179
vertex -730.360998735027 -345.80486994691 -3.00000000002179
endloop
endfacet
facet normal 2.20839305458944e-13 -1.0 1.43159122879028e-13
outer loop
vertex -730.360998735008 -432.80486994691 -3.00000000000934
vertex -728.160998735007 -432.804869946911 -9.2500000000076
vertex -728.160998735008 -432.80486994691 -3.00000000000898
endloop
endfacet
facet normal 2.20839305458944e-13 -1.0 1.43159122879028e-13
outer loop
vertex -728.160998735007 -432.804869946911 -9.2500000000076
vertex -730.360998735008 -432.80486994691 -3.00000000000934
vertex -730.360998735007 -432.804869946911 -9.25000000000796
endloop
endfacet
facet normal -1.66109476360882e-13 1.43159122878992e-13 1.0
outer loop
vertex -724.110998735007 -437.804869946909 -4.2457300000076
vertex -724.433417384062 -438.804869946909 -4.20328277959059
vertex -724.110998735007 -438.804869946909 -4.24573000000747
endloop
endfacet
facet normal 0.258819045102376 1.95438512217705e-13 0.965925826289107
outer loop
vertex -724.433417384062 -438.804869946909 -4.20328277959059
vertex -724.110998735007 -437.804869946909 -4.2457300000076
vertex -724.433417384062 -437.804869946909 -4.20328277959075
endloop
endfacet
facet normal -0.707106781186666 -5.49281838661108e-14 0.707106781186429
outer loop
vertex -723.230134604479 -437.804869946909 -3.88086413053499
vertex -723.488133735006 -438.804869946909 -4.07883382626375
vertex -723.230134604479 -438.804869946909 -3.88086413053483
endloop
endfacet
facet normal -0.500000000000126 1.35597844672265e-14 0.866025403784366
outer loop
vertex -723.488133735006 -438.804869946909 -4.07883382626375
vertex -723.230134604479 -437.804869946909 -3.88086413053499
vertex -723.488133735006 -437.804869946909 -4.07883382626389
endloop
endfacet
facet normal 0.866025479148098 2.62832008077238e-13 0.499999869466291
outer loop
vertex -727.57510065162 -345.80486994691 -4.99999947788596
vertex -726.939426286093 -350.80486994691 -5.82842669844495
vertex -726.939426286094 -345.80486994691 -5.82842669844567
endloop
endfacet
facet normal 0.707106887766865 2.57385765298202e-13 0.707106674606214
outer loop
vertex -726.939426286093 -350.80486994691 -5.82842669844495
vertex -727.57510065162 -345.80486994691 -4.99999947788596
vertex -727.575100651619 -350.80486994691 -4.99999947788524
endloop
endfacet
facet normal -0.991444861373835 -2.00263979395702e-13 0.130526192219864
outer loop
vertex -722.865268735007 -438.804869946909 -3.00000000000726
vertex -722.907715955424 -437.804869946909 -3.32241864906298
vertex -722.907715955423 -438.804869946909 -3.32241864906283
endloop
endfacet
facet normal -0.965925826289115 -1.76262081121306e-13 0.258819045102345
outer loop
vertex -722.907715955424 -437.804869946909 -3.32241864906298
vertex -722.865268735007 -438.804869946909 -3.00000000000726
vertex -722.865268735007 -437.804869946909 -3.00000000000741
endloop
endfacet
facet normal 2.20839305458944e-13 -1.0 1.43159122879028e-13
outer loop
vertex -720.060998735008 -432.804869946908 -3.00000000000767
vertex -717.860998735007 -432.804869946909 -9.25000000000731
vertex -717.860998735008 -432.804869946908 -3.00000000000731
endloop
endfacet
facet normal 2.20839305458944e-13 -1.0 1.43159122879028e-13
outer loop
vertex -717.860998735007 -432.804869946909 -9.25000000000731
vertex -720.060998735008 -432.804869946908 -3.00000000000767
vertex -720.060998735007 -432.804869946909 -9.25000000000767
endloop
endfacet
facet normal -2.20839305458944e-13 1.0 -1.43159122879028e-13
outer loop
vertex -717.860998735006 -437.804869946909 -9.25000000000567
vertex -722.865268735007 -437.804869946909 -3.00000000000741
vertex -717.860998735006 -437.804869946908 -3.00000000000659
endloop
endfacet
facet normal -2.20839305458944e-13 1.0 -1.43159122879028e-13
outer loop
vertex -722.865268735007 -437.804869946909 -3.00000000000741
vertex -717.860998735006 -437.804869946909 -9.25000000000567
vertex -722.907715955424 -437.804869946909 -3.32241864906298
endloop
endfacet
facet normal -2.20839305458944e-13 1.0 -1.43159122879028e-13
outer loop
vertex -722.907715955424 -437.804869946909 -3.32241864906298
vertex -717.860998735006 -437.804869946909 -9.25000000000567
vertex -723.03216490875 -437.804869946909 -3.62286500000744
endloop
endfacet
facet normal -2.20839305458944e-13 1.0 -1.43159122879028e-13
outer loop
vertex -723.03216490875 -437.804869946909 -3.62286500000744
vertex -717.860998735006 -437.804869946909 -9.25000000000567
vertex -723.230134604479 -437.804869946909 -3.88086413053499
endloop
endfacet
facet normal -2.20839305458944e-13 1.0 -1.43159122879028e-13
outer loop
vertex -723.230134604479 -437.804869946909 -3.88086413053499
vertex -717.860998735006 -437.804869946909 -9.25000000000567
vertex -723.488133735006 -437.804869946909 -4.07883382626389
endloop
endfacet
facet normal -2.20839305458944e-13 1.0 -1.43159122879028e-13
outer loop
vertex -723.488133735006 -437.804869946909 -4.07883382626389
vertex -717.860998735006 -437.804869946909 -9.25000000000567
vertex -730.360998735006 -437.804869946911 -9.2500000000077
endloop
endfacet
facet normal -2.20839305458944e-13 1.0 -1.43159122879028e-13
outer loop
vertex -723.488133735006 -437.804869946909 -4.07883382626389
vertex -730.360998735006 -437.804869946911 -9.2500000000077
vertex -723.788580085951 -437.804869946909 -4.20328277959064
endloop
endfacet
facet normal -2.20839305458944e-13 1.0 -1.43159122879028e-13
outer loop
vertex -723.788580085951 -437.804869946909 -4.20328277959064
vertex -730.360998735006 -437.804869946911 -9.2500000000077
vertex -724.110998735007 -437.804869946909 -4.2457300000076
endloop
endfacet
facet normal -2.20839305458944e-13 1.0 -1.43159122879028e-13
outer loop
vertex -724.110998735007 -437.804869946909 -4.2457300000076
vertex -730.360998735006 -437.804869946911 -9.2500000000077
vertex -724.433417384062 -437.804869946909 -4.20328277959075
endloop
endfacet
facet normal -2.20839305458944e-13 1.0 -1.43159122879028e-13
outer loop
vertex -724.433417384062 -437.804869946909 -4.20328277959075
vertex -730.360998735006 -437.804869946911 -9.2500000000077
vertex -724.733863735006 -437.804869946909 -4.0788338262641
endloop
endfacet
facet normal -2.20839305458944e-13 1.0 -1.43159122879028e-13
outer loop
vertex -724.733863735006 -437.804869946909 -4.0788338262641
vertex -730.360998735006 -437.804869946911 -9.2500000000077
vertex -724.991862865534 -437.80486994691 -3.88086413053527
endloop
endfacet
facet normal -2.20839305458944e-13 1.0 -1.43159122879028e-13
outer loop
vertex -724.991862865534 -437.80486994691 -3.88086413053527
vertex -730.360998735006 -437.804869946911 -9.2500000000077
vertex -725.189832561263 -437.804869946909 -3.62286500000779
endloop
endfacet
facet normal -2.20839305458944e-13 1.0 -1.43159122879028e-13
outer loop
vertex -725.189832561263 -437.804869946909 -3.62286500000779
vertex -730.360998735006 -437.804869946911 -9.2500000000077
vertex -725.31428151459 -437.80486994691 -3.32241864906337
endloop
endfacet
facet normal -2.20839305458944e-13 1.0 -1.43159122879028e-13
outer loop
vertex -725.31428151459 -437.80486994691 -3.32241864906337
vertex -730.360998735006 -437.804869946911 -9.2500000000077
vertex -725.356728735007 -437.804869946909 -3.00000000000781
endloop
endfacet
facet normal -2.20839305458944e-13 1.0 -1.43159122879028e-13
outer loop
vertex -725.356728735007 -437.804869946909 -3.00000000000781
vertex -730.360998735006 -437.804869946911 -9.2500000000077
vertex -730.360998735006 -437.80486994691 -3.00000000000862
endloop
endfacet
facet normal 0.499999999999876 2.34399089926192e-13 0.86602540378451
outer loop
vertex -724.733863735006 -438.804869946909 -4.07883382626395
vertex -724.991862865534 -437.80486994691 -3.88086413053527
vertex -724.991862865534 -438.80486994691 -3.88086413053512
endloop
endfacet
facet normal 0.707106781186437 2.57385757019017e-13 0.707106781186658
outer loop
vertex -724.991862865534 -437.80486994691 -3.88086413053527
vertex -724.733863735006 -438.804869946909 -4.07883382626395
vertex -724.733863735006 -437.804869946909 -4.0788338262641
endloop
endfacet
facet normal -0.499999869466288 1.35598240832344e-14 0.866025479148099
outer loop
vertex -722.110999257162 -345.804869946909 -6.46410191661321
vertex -723.075723136982 -350.804869946909 -6.86370346122075
vertex -722.110999257161 -350.804869946909 -6.4641019166125
endloop
endfacet
facet normal -0.258818899511083 8.11237136348623e-14 0.965925865300165
outer loop
vertex -723.075723136982 -350.804869946909 -6.86370346122075
vertex -722.110999257162 -345.804869946909 -6.46410191661321
vertex -723.075723136982 -345.804869946909 -6.86370346122147
endloop
endfacet
facet normal 1.0 2.20839305458967e-13 1.62152943567184e-13
outer loop
vertex -728.160998735008 -434.30486994691 -3.00000000000879
vertex -728.160998735006 -436.304869946911 -9.25000000000849
vertex -728.160998735007 -434.304869946911 -9.25000000000878
endloop
endfacet
facet normal 1.0 2.20839305458967e-13 1.62152943567184e-13
outer loop
vertex -728.160998735006 -436.304869946911 -9.25000000000849
vertex -728.160998735008 -434.30486994691 -3.00000000000879
vertex -728.160998735007 -436.30486994691 -3.0000000000085
endloop
endfacet
facet normal -1.0 -2.20839305458967e-13 -1.62152943567184e-13
outer loop
vertex -720.060998735007 -436.304869946908 -3.00000000000718
vertex -720.060998735007 -434.304869946909 -9.25000000000747
vertex -720.060998735006 -436.304869946909 -9.25000000000718
endloop
endfacet
facet normal -1.0 -2.20839305458967e-13 -1.62152943567184e-13
outer loop
vertex -720.060998735007 -434.304869946909 -9.25000000000747
vertex -720.060998735007 -436.304869946908 -3.00000000000718
vertex -720.060998735008 -434.304869946908 -3.00000000000748
endloop
endfacet
facet normal -2.20839305458944e-13 1.0 -1.43159122879028e-13
outer loop
vertex -717.860998735007 -430.804869946909 -9.2500000000076
vertex -720.060998735008 -430.804869946908 -3.00000000000795
vertex -717.860998735008 -430.804869946908 -3.0000000000076
endloop
endfacet
facet normal -2.20839305458944e-13 1.0 -1.43159122879028e-13
outer loop
vertex -720.060998735008 -430.804869946908 -3.00000000000795
vertex -717.860998735007 -430.804869946909 -9.2500000000076
vertex -720.060998735007 -430.804869946909 -9.25000000000795
endloop
endfacet
facet normal -0.70710678118666 -5.49281838661084e-14 0.707106781186435
outer loop
vertex -723.230134604479 -438.804869946909 -3.88086413053483
vertex -723.03216490875 -437.804869946909 -3.62286500000744
vertex -723.230134604479 -437.804869946909 -3.88086413053499
endloop
endfacet
facet normal -0.866025403784527 -1.19672887242084e-13 0.499999999999847
outer loop
vertex -723.03216490875 -437.804869946909 -3.62286500000744
vertex -723.230134604479 -438.804869946909 -3.88086413053483
vertex -723.03216490875 -438.804869946909 -3.62286500000728
endloop
endfacet
facet normal -0.500000000000148 1.35597844672197e-14 0.866025403784353
outer loop
vertex -723.488133735006 -437.804869946909 -4.07883382626389
vertex -723.788580085951 -438.804869946909 -4.20328277959049
vertex -723.488133735006 -438.804869946909 -4.07883382626375
endloop
endfacet
facet normal -0.258819045102671 8.11236758977171e-14 0.965925826289028
outer loop
vertex -723.788580085951 -438.804869946909 -4.20328277959049
vertex -723.488133735006 -437.804869946909 -4.07883382626389
vertex -723.788580085951 -437.804869946909 -4.20328277959064
endloop
endfacet
facet normal -0.965925787277949 -1.76262051663339e-13 0.258819190693958
outer loop
vertex -720.247295585914 -350.804869946908 -4.03527676279586
vertex -720.646897421344 -345.804869946909 -5.0000005221556
vertex -720.646897421343 -350.804869946909 -5.00000052215488
endloop
endfacet
facet normal -0.866025328420766 -1.19672851911694e-13 0.500000130533687
outer loop
vertex -720.646897421344 -345.804869946909 -5.0000005221556
vertex -720.247295585914 -350.804869946908 -4.03527676279586
vertex -720.247295585915 -345.804869946908 -4.03527676279658
endloop
endfacet
facet normal 1.50727332761187e-07 1.43159156165546e-13 0.999999999999989
outer loop
vertex -724.110999337936 -345.80486994691 -7.00000000002078
vertex -725.146275497802 -350.80486994691 -6.86370314913191
vertex -724.110999337936 -350.80486994691 -7.00000000002006
endloop
endfacet
facet normal 0.258819190693948 1.95438538785244e-13 0.965925787277951
outer loop
vertex -725.146275497802 -350.80486994691 -6.86370314913191
vertex -724.110999337936 -345.80486994691 -7.00000000002078
vertex -725.146275497803 -345.80486994691 -6.86370314913263
endloop
endfacet
facet normal -0.70710667460622 -5.49281450709983e-14 0.707106887766858
outer loop
vertex -721.282572036601 -350.804869946909 -5.82842755108754
vertex -720.646897421344 -345.804869946909 -5.0000005221556
vertex -721.282572036602 -345.804869946909 -5.82842755108826
endloop
endfacet
facet normal -0.866025328420766 -1.19672851911694e-13 0.500000130533687
outer loop
vertex -720.646897421344 -345.804869946909 -5.0000005221556
vertex -721.282572036601 -350.804869946909 -5.82842755108754
vertex -720.646897421343 -350.804869946909 -5.00000052215488
endloop
endfacet
facet normal -1.0 -2.20839305458967e-13 -1.62152943567184e-13
outer loop
vertex -720.060998735008 -432.804869946908 -3.00000000000767
vertex -720.060998735007 -430.804869946909 -9.25000000000795
vertex -720.060998735007 -432.804869946909 -9.25000000000767
endloop
endfacet
facet normal -1.0 -2.20839305458967e-13 -1.62152943567184e-13
outer loop
vertex -720.060998735007 -430.804869946909 -9.25000000000795
vertex -720.060998735008 -432.804869946908 -3.00000000000767
vertex -720.060998735008 -430.804869946908 -3.00000000000795
endloop
endfacet
facet normal -0.866025403784546 -1.19672887242093e-13 0.499999999999814
outer loop
vertex -723.03216490875 -438.804869946909 -3.62286500000728
vertex -722.907715955424 -437.804869946909 -3.32241864906298
vertex -723.03216490875 -437.804869946909 -3.62286500000744
endloop
endfacet
facet normal -0.965925826289115 -1.76262081121306e-13 0.258819045102345
outer loop
vertex -722.907715955424 -437.804869946909 -3.32241864906298
vertex -723.03216490875 -438.804869946909 -3.62286500000728
vertex -722.907715955423 -438.804869946909 -3.32241864906283
endloop
endfacet
facet normal 2.20839305458944e-13 -1.0 1.43159122879028e-13
outer loop
vertex -722.865268735007 -438.804869946909 -3.00000000000726
vertex -715.410998735005 -438.804869946908 -10.7000003665751
vertex -715.410998735007 -438.804869946907 -3.00000000000605
endloop
endfacet
facet normal 2.20839305458944e-13 -1.0 1.43159122879028e-13
outer loop
vertex -715.410998735005 -438.804869946908 -10.7000003665751
vertex -722.865268735007 -438.804869946909 -3.00000000000726
vertex -722.907715955423 -438.804869946909 -3.32241864906283
endloop
endfacet
facet normal 2.20839305458944e-13 -1.0 1.43159122879028e-13
outer loop
vertex -715.410998735005 -438.804869946908 -10.7000003665751
vertex -722.907715955423 -438.804869946909 -3.32241864906283
vertex -723.03216490875 -438.804869946909 -3.62286500000728
endloop
endfacet
facet normal 2.20839305458944e-13 -1.0 1.43159122879028e-13
outer loop
vertex -715.410998735005 -438.804869946908 -10.7000003665751
vertex -723.03216490875 -438.804869946909 -3.62286500000728
vertex -723.230134604479 -438.804869946909 -3.88086413053483
endloop
endfacet
facet normal 2.20839305458944e-13 -1.0 1.43159122879028e-13
outer loop
vertex -715.410998735005 -438.804869946908 -10.7000003665751
vertex -723.230134604479 -438.804869946909 -3.88086413053483
vertex -723.488133735006 -438.804869946909 -4.07883382626375
endloop
endfacet
facet normal 2.20839305458944e-13 -1.0 1.43159122879028e-13
outer loop
vertex -715.410998735005 -438.804869946908 -10.7000003665751
vertex -723.488133735006 -438.804869946909 -4.07883382626375
vertex -732.810998735005 -438.804869946912 -10.6999988108984
endloop
endfacet
facet normal 2.20839305458944e-13 -1.0 1.43159122879028e-13
outer loop
vertex -732.810998735005 -438.804869946912 -10.6999988108984
vertex -723.488133735006 -438.804869946909 -4.07883382626375
vertex -723.788580085951 -438.804869946909 -4.20328277959049
endloop
endfacet
facet normal 2.20839305458944e-13 -1.0 1.43159122879028e-13
outer loop
vertex -732.810998735005 -438.804869946912 -10.6999988108984
vertex -723.788580085951 -438.804869946909 -4.20328277959049
vertex -724.110998735007 -438.804869946909 -4.24573000000747
endloop
endfacet
facet normal 2.20839305458944e-13 -1.0 1.43159122879028e-13
outer loop
vertex -732.810998735005 -438.804869946912 -10.6999988108984
vertex -724.110998735007 -438.804869946909 -4.24573000000747
vertex -724.433417384062 -438.804869946909 -4.20328277959059
endloop
endfacet
facet normal 2.20839305458944e-13 -1.0 1.43159122879028e-13
outer loop
vertex -732.810998735005 -438.804869946912 -10.6999988108984
vertex -724.433417384062 -438.804869946909 -4.20328277959059
vertex -724.733863735006 -438.804869946909 -4.07883382626395
endloop
endfacet
facet normal 2.20839305458944e-13 -1.0 1.43159122879028e-13
outer loop
vertex -732.810998735005 -438.804869946912 -10.6999988108984
vertex -724.733863735006 -438.804869946909 -4.07883382626395
vertex -724.991862865534 -438.80486994691 -3.88086413053512
endloop
endfacet
facet normal 2.20839305458944e-13 -1.0 1.43159122879028e-13
outer loop
vertex -732.810998735005 -438.804869946912 -10.6999988108984
vertex -724.991862865534 -438.80486994691 -3.88086413053512
vertex -725.189832561263 -438.804869946909 -3.62286500000763
endloop
endfacet
facet normal 2.20839305458944e-13 -1.0 1.43159122879028e-13
outer loop
vertex -732.810998735005 -438.804869946912 -10.6999988108984
vertex -725.189832561263 -438.804869946909 -3.62286500000763
vertex -725.31428151459 -438.80486994691 -3.32241864906322
endloop
endfacet
facet normal 2.20839305458944e-13 -1.0 1.43159122879028e-13
outer loop
vertex -732.810998735005 -438.804869946912 -10.6999988108984
vertex -725.31428151459 -438.80486994691 -3.32241864906322
vertex -725.356728735007 -438.804869946909 -3.00000000000767
endloop
endfacet
facet normal 2.20839305458944e-13 -1.0 1.43159122879028e-13
outer loop
vertex -732.810998735005 -438.804869946912 -10.6999988108984
vertex -725.356728735007 -438.804869946909 -3.00000000000767
vertex -732.810998735006 -438.804869946911 -3.00000000000889
endloop
endfacet
facet normal 1.0 2.20839305458967e-13 1.62152943567184e-13
outer loop
vertex -730.360998735041 -282.40486994691 -3.00000000003087
vertex -730.36099873504 -283.904869946911 -9.25000000003066
vertex -730.36099873504 -282.404869946911 -9.25000000003089
endloop
endfacet
facet normal 1.0 2.20839305458967e-13 1.62152943567184e-13
outer loop
vertex -730.36099873504 -283.904869946911 -9.25000000003066
vertex -730.360998735041 -282.40486994691 -3.00000000003087
vertex -730.360998735041 -283.90486994691 -3.00000000003066
endloop
endfacet
facet normal -0.70710667460622 -5.4928145070998e-14 0.707106887766859
outer loop
vertex -721.282572036602 -345.804869946909 -5.82842755108826
vertex -722.110999257161 -350.804869946909 -6.4641019166125
vertex -721.282572036601 -350.804869946909 -5.82842755108754
endloop
endfacet
facet normal -0.499999869466293 1.35598240832329e-14 0.866025479148096
outer loop
vertex -722.110999257161 -350.804869946909 -6.4641019166125
vertex -721.282572036602 -345.804869946909 -5.82842755108826
vertex -722.110999257162 -345.804869946909 -6.46410191661321
endloop
endfacet
facet normal 0.965925826289027 2.50366696083812e-13 0.258819045102673
outer loop
vertex -725.31428151459 -437.80486994691 -3.32241864906337
vertex -725.189832561263 -438.804869946909 -3.62286500000763
vertex -725.189832561263 -437.804869946909 -3.62286500000779
endloop
endfacet
facet normal 0.866025403784377 2.62832010121073e-13 0.500000000000107
outer loop
vertex -725.189832561263 -438.804869946909 -3.62286500000763
vertex -725.31428151459 -437.80486994691 -3.32241864906337
vertex -725.31428151459 -438.80486994691 -3.32241864906322
endloop
endfacet
facet normal -2.20839305458944e-13 1.0 -1.43159122879028e-13
outer loop
vertex -717.86099873504 -283.904869946909 -9.25000000002863
vertex -720.060998735041 -283.904869946908 -3.00000000002898
vertex -717.860998735041 -283.904869946908 -3.00000000002863
endloop
endfacet
facet normal -2.20839305458944e-13 1.0 -1.43159122879028e-13
outer loop
vertex -720.060998735041 -283.904869946908 -3.00000000002898
vertex -717.86099873504 -283.904869946909 -9.25000000002863
vertex -720.06099873504 -283.904869946909 -9.25000000002898
endloop
endfacet
facet normal 0.991444881047666 2.37635992728961e-13 0.130526042782192
outer loop
vertex -728.110998735027 -345.80486994691 -2.99999939711144
vertex -727.974702196227 -350.80486994691 -4.03527559806442
vertex -727.974702196228 -345.80486994691 -4.03527559806514
endloop
endfacet
facet normal 0.965925865300165 2.5036668385624e-13 0.258818899511083
outer loop
vertex -727.974702196227 -350.80486994691 -4.03527559806442
vertex -728.110998735027 -345.80486994691 -2.99999939711144
vertex -728.110998735026 -350.80486994691 -2.99999939711073
endloop
endfacet
facet normal -0.258818899511083 8.11237136348623e-14 0.965925865300165
outer loop
vertex -723.075723136982 -350.804869946909 -6.86370346122075
vertex -724.110999337936 -345.80486994691 -7.00000000002078
vertex -724.110999337936 -350.80486994691 -7.00000000002006
endloop
endfacet
facet normal 1.50727332761187e-07 1.43159156165546e-13 0.999999999999989
outer loop
vertex -724.110999337936 -345.80486994691 -7.00000000002078
vertex -723.075723136982 -350.804869946909 -6.86370346122075
vertex -723.075723136982 -345.804869946909 -6.86370346122147
endloop
endfacet
facet normal -1.0 -2.20839305458967e-13 -1.62152943567184e-13
outer loop
vertex -717.860998735006 -437.804869946909 -9.25000000000567
vertex -717.860998735007 -436.304869946908 -3.00000000000684
vertex -717.860998735006 -436.304869946909 -9.25000000000683
endloop
endfacet
facet normal -1.0 -2.20839305458967e-13 -1.62152943567184e-13
outer loop
vertex -717.860998735007 -436.304869946908 -3.00000000000684
vertex -717.860998735006 -437.804869946909 -9.25000000000567
vertex -717.860998735006 -437.804869946908 -3.00000000000659
endloop
endfacet
facet normal 1.0 2.20839305458967e-13 1.62152943567184e-13
outer loop
vertex -730.36099873505 -240.904869946911 -9.25000000003681
vertex -730.36099873505 -242.40486994691 -3.00000000003662
vertex -730.360998735049 -242.404869946911 -9.25000000003662
endloop
endfacet
facet normal 1.0 2.20839305458967e-13 1.62152943567184e-13
outer loop
vertex -730.36099873505 -242.40486994691 -3.00000000003662
vertex -730.36099873505 -240.904869946911 -9.25000000003681
vertex -730.36099873505 -240.90486994691 -3.00000000003683
endloop
endfacet
facet normal 2.20839305458944e-13 -1.0 1.43159122879028e-13
outer loop
vertex -720.06099873505 -240.904869946908 -3.00000000003515
vertex -717.860998735049 -240.904869946909 -9.25000000003478
vertex -717.86099873505 -240.904869946908 -3.00000000003479
endloop
endfacet
facet normal 2.20839305458944e-13 -1.0 1.43159122879028e-13
outer loop
vertex -717.860998735049 -240.904869946909 -9.25000000003478
vertex -720.06099873505 -240.904869946908 -3.00000000003515
vertex -720.060998735049 -240.904869946909 -9.25000000003514
endloop
endfacet
facet normal -1.0 -2.20839305458967e-13 -1.62152943567184e-13
outer loop
vertex -720.060998735049 -240.904869946909 -9.25000000003514
vertex -720.060998735051 -237.904869946908 -3.00000000003558
vertex -720.06099873505 -237.904869946909 -9.2500000000356
endloop
endfacet
facet normal -1.0 -2.20839305458967e-13 -1.62152943567184e-13
outer loop
vertex -720.060998735051 -237.904869946908 -3.00000000003558
vertex -720.060998735049 -240.904869946909 -9.25000000003514
vertex -720.06099873505 -240.904869946908 -3.00000000003515
endloop
endfacet
facet normal -2.20839305458944e-13 1.0 -1.43159122879028e-13
outer loop
vertex -717.860998735007 -434.304869946909 -9.25000000000711
vertex -720.060998735008 -434.304869946908 -3.00000000000748
vertex -717.860998735008 -434.304869946908 -3.00000000000712
endloop
endfacet
facet normal -2.20839305458944e-13 1.0 -1.43159122879028e-13
outer loop
vertex -720.060998735008 -434.304869946908 -3.00000000000748
vertex -717.860998735007 -434.304869946909 -9.25000000000711
vertex -720.060998735007 -434.304869946909 -9.25000000000747
endloop
endfacet
facet normal -1.0 -2.20839305458967e-13 -1.62152943567184e-13
outer loop
vertex -720.06099873504 -285.904869946908 -3.00000000002871
vertex -720.06099873504 -283.904869946909 -9.25000000002898
vertex -720.060998735039 -285.904869946909 -9.25000000002872
endloop
endfacet
facet normal -1.0 -2.20839305458967e-13 -1.62152943567184e-13
outer loop
vertex -720.06099873504 -283.904869946909 -9.25000000002898
vertex -720.06099873504 -285.904869946908 -3.00000000002871
vertex -720.060998735041 -283.904869946908 -3.00000000002898
endloop
endfacet
facet normal 2.20839305458944e-13 -1.0 1.43159122879028e-13
outer loop
vertex -720.110998735026 -350.804869946908 -3.00000060292943
vertex -717.860998735025 -350.804869946909 -9.25000000001907
vertex -717.860998735026 -350.804869946908 -3.00000000001908
endloop
endfacet
facet normal 2.20839305458944e-13 -1.0 1.43159122879028e-13
outer loop
vertex -717.860998735025 -350.804869946909 -9.25000000001907
vertex -720.110998735026 -350.804869946908 -3.00000060292943
vertex -720.247295585914 -350.804869946908 -4.03527676279586
endloop
endfacet
facet normal 2.20839305458944e-13 -1.0 1.43159122879028e-13
outer loop
vertex -717.860998735025 -350.804869946909 -9.25000000001907
vertex -720.247295585914 -350.804869946908 -4.03527676279586
vertex -720.646897421343 -350.804869946909 -5.00000052215488
endloop
endfacet
facet normal 2.20839305458944e-13 -1.0 1.43159122879028e-13
outer loop
vertex -717.860998735025 -350.804869946909 -9.25000000001907
vertex -720.646897421343 -350.804869946909 -5.00000052215488
vertex -721.282572036601 -350.804869946909 -5.82842755108754
endloop
endfacet
facet normal 2.20839305458944e-13 -1.0 1.43159122879028e-13
outer loop
vertex -717.860998735025 -350.804869946909 -9.25000000001907
vertex -721.282572036601 -350.804869946909 -5.82842755108754
vertex -722.110999257161 -350.804869946909 -6.4641019166125
endloop
endfacet
facet normal 2.20839305458944e-13 -1.0 1.43159122879028e-13
outer loop
vertex -717.860998735025 -350.804869946909 -9.25000000001907
vertex -722.110999257161 -350.804869946909 -6.4641019166125
vertex -723.075723136982 -350.804869946909 -6.86370346122075
endloop
endfacet
facet normal 2.20839305458944e-13 -1.0 1.43159122879028e-13
outer loop
vertex -717.860998735025 -350.804869946909 -9.25000000001907
vertex -723.075723136982 -350.804869946909 -6.86370346122075
vertex -730.360998735025 -350.804869946911 -9.25000000002109
endloop
endfacet
facet normal 2.20839305458944e-13 -1.0 1.43159122879028e-13
outer loop
vertex -730.360998735025 -350.804869946911 -9.25000000002109
vertex -723.075723136982 -350.804869946909 -6.86370346122075
vertex -724.110999337936 -350.80486994691 -7.00000000002006
endloop
endfacet
facet normal 2.20839305458944e-13 -1.0 1.43159122879028e-13
outer loop
vertex -730.360998735025 -350.804869946911 -9.25000000002109
vertex -724.110999337936 -350.80486994691 -7.00000000002006
vertex -725.146275497802 -350.80486994691 -6.86370314913191
endloop
endfacet
facet normal 2.20839305458944e-13 -1.0 1.43159122879028e-13
outer loop
vertex -730.360998735025 -350.804869946911 -9.25000000002109
vertex -725.146275497802 -350.80486994691 -6.86370314913191
vertex -726.110999257161 -350.80486994691 -6.46410131370314
endloop
endfacet
facet normal 2.20839305458944e-13 -1.0 1.43159122879028e-13
outer loop
vertex -730.360998735025 -350.804869946911 -9.25000000002109
vertex -726.110999257161 -350.80486994691 -6.46410131370314
vertex -726.939426286093 -350.80486994691 -5.82842669844495
endloop
endfacet
facet normal 2.20839305458944e-13 -1.0 1.43159122879028e-13
outer loop
vertex -730.360998735025 -350.804869946911 -9.25000000002109
vertex -726.939426286093 -350.80486994691 -5.82842669844495
vertex -727.575100651619 -350.80486994691 -4.99999947788524
endloop
endfacet
facet normal 2.20839305458944e-13 -1.0 1.43159122879028e-13
outer loop
vertex -730.360998735025 -350.804869946911 -9.25000000002109
vertex -727.575100651619 -350.80486994691 -4.99999947788524
vertex -727.974702196227 -350.80486994691 -4.03527559806442
endloop
endfacet
facet normal 2.20839305458944e-13 -1.0 1.43159122879028e-13
outer loop
vertex -730.360998735025 -350.804869946911 -9.25000000002109
vertex -727.974702196227 -350.80486994691 -4.03527559806442
vertex -728.110998735026 -350.80486994691 -2.99999939711073
endloop
endfacet
facet normal 2.20839305458944e-13 -1.0 1.43159122879028e-13
outer loop
vertex -730.360998735025 -350.804869946911 -9.25000000002109
vertex -728.110998735026 -350.80486994691 -2.99999939711073
vertex -730.360998735026 -350.80486994691 -3.00000000002108
endloop
endfacet
facet normal -0.258819045102712 8.11236758977063e-14 0.965925826289017
outer loop
vertex -723.788580085951 -437.804869946909 -4.20328277959064
vertex -724.110998735007 -438.804869946909 -4.24573000000747
vertex -723.788580085951 -438.804869946909 -4.20328277959049
endloop
endfacet
facet normal -1.32764103131372e-13 1.43159122878999e-13 1.0
outer loop
vertex -724.110998735007 -438.804869946909 -4.24573000000747
vertex -723.788580085951 -437.804869946909 -4.20328277959064
vertex -724.110998735007 -437.804869946909 -4.2457300000076
endloop
endfacet
facet normal 1.0 2.20839305458967e-13 1.62152943567184e-13
outer loop
vertex -728.160998735007 -430.804869946911 -9.25000000000789
vertex -728.160998735008 -432.80486994691 -3.00000000000898
vertex -728.160998735007 -432.804869946911 -9.2500000000076
endloop
endfacet
facet normal 1.0 2.20839305458967e-13 1.62152943567184e-13
outer loop
vertex -728.160998735008 -432.80486994691 -3.00000000000898
vertex -728.160998735007 -430.804869946911 -9.25000000000789
vertex -728.160998735008 -430.80486994691 -3.00000000000927
endloop
endfacet
facet normal 1.0 2.20839305458967e-13 1.62152943567184e-13
outer loop
vertex -715.410998735051 -237.904869946907 -3.0000000000348
vertex -715.410998735005 -438.804869946908 -10.7000003665751
vertex -715.41099873505 -237.904869946908 -10.7000003666038
endloop
endfacet
facet normal 1.0 2.20839305458967e-13 1.62152943567184e-13
outer loop
vertex -715.410998735005 -438.804869946908 -10.7000003665751
vertex -715.410998735051 -237.904869946907 -3.0000000000348
vertex -715.410998735007 -438.804869946907 -3.00000000000605
endloop
endfacet
facet normal -1.0 -2.20839305458967e-13 -1.62152943567184e-13
outer loop
vertex -732.810998735005 -438.804869946912 -10.6999988108984
vertex -732.810998735051 -237.904869946911 -3.00000000003765
vertex -732.81099873505 -237.904869946912 -10.6999988109272
endloop
endfacet
facet normal -1.0 -2.20839305458967e-13 -1.62152943567184e-13
outer loop
vertex -732.810998735051 -237.904869946911 -3.00000000003765
vertex -732.810998735005 -438.804869946912 -10.6999988108984
vertex -732.810998735006 -438.804869946911 -3.00000000000889
endloop
endfacet
facet normal 1.0 2.20839305458967e-13 1.62152943567184e-13
outer loop
vertex -728.16099873505 -242.40486994691 -3.00000000003626
vertex -728.16099873504 -282.404869946911 -9.25000000003053
vertex -728.160998735049 -242.404869946911 -9.25000000003627
endloop
endfacet
facet normal 1.0 2.20839305458967e-13 1.62152943567184e-13
outer loop
vertex -728.16099873504 -282.404869946911 -9.25000000003053
vertex -728.16099873505 -242.40486994691 -3.00000000003626
vertex -728.160998735041 -282.40486994691 -3.00000000003053
endloop
endfacet
facet normal -2.20837338484219e-13 1.0 -1.44102019857899e-13
outer loop
vertex -715.41099873505 -237.904869946908 -10.7000003666038
vertex -720.060998735051 -237.904869946908 -3.00000000003558
vertex -715.410998735051 -237.904869946907 -3.0000000000348
endloop
endfacet
facet normal -2.20837338484219e-13 1.0 -1.44102019857899e-13
outer loop
vertex -720.060998735051 -237.904869946908 -3.00000000003558
vertex -715.41099873505 -237.904869946908 -10.7000003666038
vertex -720.06099873505 -237.904869946909 -9.2500000000356
endloop
endfacet
facet normal -2.20837338484219e-13 1.0 -1.44102019857899e-13
outer loop
vertex -720.06099873505 -237.904869946909 -9.2500000000356
vertex -715.41099873505 -237.904869946908 -10.7000003666038
vertex -732.81099873505 -237.904869946912 -10.6999988109272
endloop
endfacet
facet normal -2.20837338484219e-13 1.0 -1.44102019857899e-13
outer loop
vertex -720.06099873505 -237.904869946909 -9.2500000000356
vertex -732.81099873505 -237.904869946912 -10.6999988109272
vertex -728.16099873505 -237.904869946911 -9.25000000003692
endloop
endfacet
facet normal -2.20837338484219e-13 1.0 -1.44102019857899e-13
outer loop
vertex -728.16099873505 -237.904869946911 -9.25000000003692
vertex -732.810998735051 -237.904869946911 -3.00000000003765
vertex -728.160998735051 -237.90486994691 -3.00000000003689
endloop
endfacet
facet normal -2.20837338484219e-13 1.0 -1.44102019857899e-13
outer loop
vertex -732.810998735051 -237.904869946911 -3.00000000003765
vertex -728.16099873505 -237.904869946911 -9.25000000003692
vertex -732.81099873505 -237.904869946912 -10.6999988109272
endloop
endfacet
facet normal -2.20839305458944e-13 1.0 -1.43159122879028e-13
outer loop
vertex -728.160998735049 -242.404869946911 -9.25000000003627
vertex -730.36099873505 -242.40486994691 -3.00000000003662
vertex -728.16099873505 -242.40486994691 -3.00000000003626
endloop
endfacet
facet normal -2.20839305458944e-13 1.0 -1.43159122879028e-13
outer loop
vertex -730.36099873505 -242.40486994691 -3.00000000003662
vertex -728.160998735049 -242.404869946911 -9.25000000003627
vertex -730.360998735049 -242.404869946911 -9.25000000003662
endloop
endfacet
facet normal 2.20839305458944e-13 -1.0 1.43159122879028e-13
outer loop
vertex -720.060998735041 -282.404869946908 -3.00000000002921
vertex -717.86099873504 -282.404869946909 -9.25000000002887
vertex -717.860998735041 -282.404869946908 -3.00000000002886
endloop
endfacet
facet normal 2.20839305458944e-13 -1.0 1.43159122879028e-13
outer loop
vertex -717.86099873504 -282.404869946909 -9.25000000002887
vertex -720.060998735041 -282.404869946908 -3.00000000002921
vertex -720.06099873504 -282.404869946909 -9.2500000000292
endloop
endfacet
facet normal -2.20839305458944e-13 1.0 -1.43159122879028e-13
outer loop
vertex -717.860998735049 -242.404869946909 -9.25000000003459
vertex -720.06099873505 -242.404869946908 -3.00000000003495
vertex -717.86099873505 -242.404869946908 -3.00000000003459
endloop
endfacet
facet normal -2.20839305458944e-13 1.0 -1.43159122879028e-13
outer loop
vertex -720.06099873505 -242.404869946908 -3.00000000003495
vertex -717.860998735049 -242.404869946909 -9.25000000003459
vertex -720.060998735049 -242.404869946909 -9.25000000003495
endloop
endfacet
facet normal -1.0 -2.20839305458967e-13 -1.62152943567184e-13
outer loop
vertex -720.06099873504 -282.404869946909 -9.2500000000292
vertex -720.06099873505 -242.404869946908 -3.00000000003495
vertex -720.060998735049 -242.404869946909 -9.25000000003495
endloop
endfacet
facet normal -1.0 -2.20839305458967e-13 -1.62152943567184e-13
outer loop
vertex -720.06099873505 -242.404869946908 -3.00000000003495
vertex -720.06099873504 -282.404869946909 -9.2500000000292
vertex -720.060998735041 -282.404869946908 -3.00000000002921
endloop
endfacet
facet normal -2.20839305458944e-13 1.0 -1.43159122879028e-13
outer loop
vertex -728.16099873504 -283.904869946911 -9.2500000000303
vertex -730.360998735041 -283.90486994691 -3.00000000003066
vertex -728.160998735041 -283.90486994691 -3.0000000000303
endloop
endfacet
facet normal -2.20839305458944e-13 1.0 -1.43159122879028e-13
outer loop
vertex -730.360998735041 -283.90486994691 -3.00000000003066
vertex -728.16099873504 -283.904869946911 -9.2500000000303
vertex -730.36099873504 -283.904869946911 -9.25000000003066
endloop
endfacet
facet normal 1.0 2.20839305458967e-13 1.62152943567184e-13
outer loop
vertex -728.160998735051 -237.90486994691 -3.00000000003689
vertex -728.160998735049 -240.904869946911 -9.25000000003646
vertex -728.16099873505 -237.904869946911 -9.25000000003692
endloop
endfacet
facet normal 1.0 2.20839305458967e-13 1.62152943567184e-13
outer loop
vertex -728.160998735049 -240.904869946911 -9.25000000003646
vertex -728.160998735051 -237.90486994691 -3.00000000003689
vertex -728.16099873505 -240.90486994691 -3.00000000003647
endloop
endfacet
facet normal 1.0 2.20839305458967e-13 1.62152943567184e-13
outer loop
vertex -728.16099873504 -283.904869946911 -9.2500000000303
vertex -728.16099873504 -285.90486994691 -3.00000000003003
vertex -728.160998735039 -285.904869946911 -9.25000000003004
endloop
endfacet
facet normal 1.0 2.20839305458967e-13 1.62152943567184e-13
outer loop
vertex -728.16099873504 -285.90486994691 -3.00000000003003
vertex -728.16099873504 -283.904869946911 -9.2500000000303
vertex -728.160998735041 -283.90486994691 -3.0000000000303
endloop
endfacet
facet normal -2.20839305458944e-13 1.0 -1.43159122879028e-13
outer loop
vertex -728.160998735007 -434.304869946911 -9.25000000000878
vertex -730.360998735008 -434.30486994691 -3.00000000000915
vertex -728.160998735008 -434.30486994691 -3.00000000000879
endloop
endfacet
facet normal -2.20839305458944e-13 1.0 -1.43159122879028e-13
outer loop
vertex -730.360998735008 -434.30486994691 -3.00000000000915
vertex -728.160998735007 -434.304869946911 -9.25000000000878
vertex -730.360998735007 -434.304869946911 -9.25000000000913
endloop
endfacet
facet normal 1.0 2.20839305458967e-13 1.62152943567184e-13
outer loop
vertex -730.360998735007 -432.804869946911 -9.25000000000796
vertex -730.360998735008 -434.30486994691 -3.00000000000915
vertex -730.360998735007 -434.304869946911 -9.25000000000913
endloop
endfacet
facet normal 1.0 2.20839305458967e-13 1.62152943567184e-13
outer loop
vertex -730.360998735008 -434.30486994691 -3.00000000000915
vertex -730.360998735007 -432.804869946911 -9.25000000000796
vertex -730.360998735008 -432.80486994691 -3.00000000000934
endloop
endfacet
facet normal 2.20839305458944e-13 -1.0 1.43159122879028e-13
outer loop
vertex -730.360998735041 -282.40486994691 -3.00000000003087
vertex -728.16099873504 -282.404869946911 -9.25000000003053
vertex -728.160998735041 -282.40486994691 -3.00000000003053
endloop
endfacet
facet normal 2.20839305458944e-13 -1.0 1.43159122879028e-13
outer loop
vertex -728.16099873504 -282.404869946911 -9.25000000003053
vertex -730.360998735041 -282.40486994691 -3.00000000003087
vertex -730.36099873504 -282.404869946911 -9.25000000003089
endloop
endfacet
endsolid Microscope-Sketchup
